<svg xmlns="http://www.w3.org/2000/svg" viewBox="0 0 1240 304" fill="none" width="1024px" height="251.045161px" preserveAspectRatio="none" style="width: 1024px; height: 251.045161px;">
  <path d="M197.057 87.018C192.059 87.018 188.008 82.8819 188.008 77.7797C188.008 72.6776 192.059 68.5415 197.057 68.5415C202.055 68.5415 206.107 72.6776 206.107 77.7797C206.107 82.8819 202.055 87.018 197.057 87.018Z" fill="#D9E2E7"/>
  <path d="M332.061 177.062C332.03 176.146 332.084 175.214 332.061 174.293C326.52 173.752 320.28 175.399 314.836 174.692C314.132 174.601 314.209 174.827 314.263 173.902H332.061V171.138H306.138V214.979H301.495V135.393C301.495 134.587 299.263 134.888 299.174 134.801C299.007 134.643 299.348 131.416 299.174 131.242C299 131.068 295.858 131.42 295.688 131.246C295.517 131.072 295.812 127.253 295.688 126.503H278.277C278.157 127.253 278.443 131.076 278.277 131.246C278.11 131.416 274.961 131.068 274.791 131.242C274.621 131.416 274.961 134.643 274.791 134.801C274.698 134.888 272.469 134.587 272.469 135.393V173.507H267.053V245.589C267.053 246.493 263.57 246.13 262.793 246.185C262.63 225.979 263.009 205.748 262.812 185.538C262.804 184.606 262.402 183.741 262.394 182.805C262.294 173.918 262.503 165.012 262.406 156.129C262.267 155.931 261.911 156.524 261.829 156.524H256.026C255.983 156.524 255.445 155.975 255.445 155.931V88.5898H249.642V56.0052C249.642 55.4009 247.874 55.3101 247.32 55.4127V88.5898H240.743V56.0052C240.743 55.4009 238.975 55.3101 238.422 55.4127V88.5898H232.231V114.263C232.231 114.46 228.362 114.065 228.362 114.263V245.786H223.719V177.062H215.594V246.181C213.725 246.821 211.733 246.525 209.79 246.576V142.305H216.755V141.519L211.725 141.12V134.406C211.032 134.287 207.624 134.568 207.465 134.406C207.19 134.125 207.272 127.533 207.082 126.507H196.829C196.786 126.507 196.249 127.055 196.249 127.099V134.406C196.249 134.603 192.38 134.208 192.38 134.406V141.515H186.963V246.181H182.707V207.079H175.743V246.576C175.096 246.576 172.26 246.805 172.26 245.984V207.079H164.135V246.181C164.135 246.386 160.266 246.971 160.266 245.984V207.079H153.302V246.181H148.659V135.788C148.659 134.888 142.082 134.888 142.082 135.788V246.181C142.082 246.26 140.534 246.26 140.534 246.181V135.196C139.315 134.358 137.439 136.562 137.439 137.368V246.181C137.439 246.26 135.891 246.26 135.891 246.181V138.75C134.046 139.256 132.726 141.341 132.78 143.277L132.796 245.786C132.448 246.797 130.505 246.062 130.842 244.818L130.861 143.095C130.393 143.368 128.153 145.473 128.153 145.662V245.786L126.601 245.557V135.196H120.028V217.151C120.028 217.649 118.565 217.589 118.453 217.984L118.426 245.138C118.055 246.276 112.677 245.96 112.677 245.194V203.13H108.421V186.936H82.111V203.13H77.855V245.391H72.8252V206.289H55.4144V215.769C55.4144 215.994 51.1584 215.299 51.1584 216.361V249.341C29.9559 249.669 8.69916 248.906 -12.5034 249.325C-16.9335 249.412 -21.5764 249.992 -26.0142 250.146C-32.1196 250.36 -38.4842 249.921 -44.5547 250.573C-44.9533 250.616 -46.3733 250.731 -46.3384 251.312C-39.5753 251.639 -32.7812 251.497 -26.0103 251.695C2.29584 252.512 30.718 252.931 59.0784 253.306C163.698 254.696 268.689 254.507 373.247 253.275C412.545 252.812 451.855 252.844 491.076 251.312C490.879 250.597 489.168 250.549 488.577 250.51C477.201 249.72 465.513 249.518 454.142 249.325C434.351 248.989 414.522 249.609 394.732 249.345V221.302H390.48V214.39C390.48 213.585 388.248 213.885 388.159 213.798C387.868 213.525 388.255 207.095 388.112 205.748C387.779 202.632 385.559 197.786 383.322 195.629C382.483 194.82 378.254 192.513 378.153 192.217C377.708 190.917 378.443 188.176 378.122 186.802C377.979 186.198 376.683 186.486 376.54 185.882C376.281 184.792 376.741 178.835 376.161 178.251C376.106 178.196 374.69 178.196 374.636 178.251C374.559 178.33 374.238 180.309 374.238 180.419V186.541C374.238 186.62 372.69 186.462 372.69 186.541V192.466C372.69 192.58 371.224 192.936 370.639 193.335C367.258 195.633 362.63 200.906 362.63 205.302V213.794C362.63 213.912 360.309 213.675 360.309 213.794V220.903C360.309 221.128 356.053 220.433 356.053 221.496V246.181H351.797V160.868H349.862V246.181H348.702V160.868H346.767V245.786H345.606V160.868H343.672V245.786H342.511V160.868H340.577C340.383 161.011 340.964 161.378 340.964 161.461V245.786C340.964 245.865 339.416 245.865 339.416 245.786V160.868H336.321V246.181C328.985 245.664 321.626 245.774 314.271 245.782C314.178 245.095 315.149 245.411 315.617 245.391C321.08 245.162 326.602 245.557 332.069 245.391C332.092 244.605 332.034 243.807 332.069 243.017C326.362 242.792 320.535 243.321 314.84 243.017C314.039 242.974 314.135 242.788 314.271 242.03C314.426 241.133 330.378 242.298 332.072 241.828C332.042 241.042 332.1 240.245 332.072 239.455C331.473 238.823 317.37 239.786 314.847 239.455C314.143 239.364 314.221 239.589 314.275 238.665H332.072V236.295H314.275V235.505H332.072V232.74H314.275V231.95H331.492C331.573 231.95 331.929 232.543 332.069 232.345V229.581H314.275V228.791H330.718C330.916 228.791 331.531 229.419 332.069 229.186V226.421H314.275V226.026H332.072V223.261H314.275C314.19 222.566 315.149 222.886 315.625 222.866C320.543 222.657 326.435 223.415 331.144 222.886C331.682 222.827 331.697 222.858 332.072 222.471V220.097C326.609 219.936 321.092 220.323 315.625 220.097C315.103 220.078 314.015 220.425 314.271 219.509C314.526 218.593 330.161 219.758 332.072 219.308C332.076 219.043 332.065 218.782 332.072 218.518C331.906 217.909 332.606 217.009 331.504 216.934C326.261 216.57 319.866 217.593 314.847 216.938C314.282 216.863 313.648 216.638 314.275 216.148H332.456C332.467 215.358 332.456 214.56 332.456 213.774H314.271C313.644 213.288 314.279 213.059 314.843 212.984C317.366 212.656 331.469 213.616 332.069 212.984C332.092 212.068 332.034 211.136 332.069 210.215C330.057 211.041 327.642 210.433 325.491 210.61C325.104 210.63 324.717 210.599 324.33 210.61C320.86 210.733 317.354 210.524 313.884 210.61C314.031 209.892 314.646 209.876 315.223 209.809C317.765 209.516 321.266 209.828 323.944 209.824C324.458 209.824 324.977 209.824 325.491 209.824C326.505 209.106 328.416 209.426 329.747 209.429C330.262 209.429 330.78 209.429 331.295 209.429H332.069C332.084 208.77 332.061 208.114 332.069 207.455C328.269 207.542 324.443 207.34 320.639 207.439C319.455 207.47 313.919 208.849 313.88 206.866L332.069 206.27C332.072 205.48 332.069 204.69 332.069 203.9C330.471 203.77 314.422 205.385 314.267 204.488C314.135 203.726 314.039 203.541 314.836 203.501C320.523 203.201 326.366 203.446 332.065 203.11C332.065 202.32 332.072 201.53 332.065 200.74C330.8 200.326 328.857 201.135 328.002 201.135H314.267L314.84 200.345L332.065 199.95C332.057 199.16 332.084 198.37 332.065 197.581C330.258 197.47 314.418 198.671 314.263 197.774C314.132 197.012 314.035 196.826 314.832 196.787C320.531 196.486 326.354 197.016 332.061 196.787C332.03 196.001 332.088 195.199 332.061 194.413C330.15 193.967 314.503 195.088 314.259 194.215C314.004 193.299 315.091 193.647 315.613 193.627C321.08 193.402 326.598 193.789 332.061 193.627C332.084 192.841 332.026 192.043 332.061 191.253C326.354 191.028 320.527 191.557 314.832 191.253C314.031 191.21 314.128 191.024 314.263 190.266C314.418 189.369 330.37 190.534 332.065 190.064C332.08 189.409 332.045 188.745 332.065 188.089C326.358 187.864 320.531 188.394 314.836 188.089C314.035 188.046 314.132 187.86 314.267 187.102C314.422 186.206 330.374 187.371 332.069 186.901C332.084 186.111 332.065 185.321 332.069 184.531H314.267V183.346H332.065V181.371H314.267V180.186H332.065C332.049 179.4 332.1 178.602 332.065 177.816C326.602 177.651 321.08 178.038 315.617 177.816C315.095 177.797 314.008 178.144 314.263 177.228C314.518 176.312 330.153 177.477 332.065 177.027L332.061 177.062ZM276.733 186.146H290.855C290.898 186.146 291.436 186.695 291.436 186.739V197.995H297.239V246.576H294.144V201.155H291.436V246.576H288.34V189.306H285.632V246.576C284.986 246.576 282.15 246.805 282.15 245.984V189.306H279.828V246.576H276.733V201.155H274.025V246.576H271.703V197.995H276.733V186.146ZM256.227 190.886H259.322V246.181H239.59V190.886C245.378 190.503 243.571 191.383 243.444 195.412C243.099 206.329 243.749 217.309 243.444 228.23C243.378 229.612 244.229 229.715 245.397 229.592V190.886C245.397 190.807 246.945 190.807 246.945 190.886V222.088H248.88V190.886H250.814V210.634H252.749V190.886C252.749 190.807 254.296 190.807 254.296 190.886V215.769H256.231V190.886H256.227ZM97.2274 205.069V245.794H94.1128V205.069H97.2274ZM102.625 207.068H105.333V245.786H102.625V207.068ZM85.6009 207.052H88.3092V246.169H85.6009V207.052Z" fill="#D9E2E7"/>
  <path d="M94.1128 158.894V166.003C86.4172 167.859 83.5657 176.864 84.0532 184.171H106.881C107.368 177.295 105.759 171.584 100.199 167.492C99.5373 167.002 97.3589 166.082 97.27 165.94C96.736 165.067 97.7265 160.501 97.0262 159.269C96.7128 158.72 94.8634 159.723 94.1128 158.894Z" fill="#D9E2E7"/>
  <path d="M88.3053 259.219C88.2511 259.274 88.2511 260.739 88.3053 260.795C88.7115 261.229 98.4462 260.313 100.091 261.209L358.378 260.961V259.211C358.03 258.851 350.075 259.456 348.524 259.195C347.332 258.994 346.713 257.817 345.432 258.006L102.025 258.014C100.094 257.785 97.8697 259.009 96.2601 259.238C95.0143 259.416 88.58 258.926 88.3053 259.219Z" fill="#D9E2E7"/>
  <path d="M88.3053 265.12H358.757V267.134H88.3053V265.12Z" fill="#D9E2E7"/>
  <path d="M109.589 271.854H336.704V273.039H109.589V271.854Z" fill="#D9E2E7"/>
  <path d="M319.293 160.868V168.175C319.293 168.219 319.831 168.768 319.873 168.768H332.061V160.868H319.293Z" fill="#D9E2E7"/>
  <path d="M166.851 170.743C166.406 170.869 163.369 170.565 163.369 170.743V176.272C163.369 176.525 158.935 175.849 159.887 178.642H176.137V176.268C170.442 177.801 173.541 171.643 172.659 170.739C172.516 170.592 169.788 170.845 169.173 170.739V150.793C169.173 150.011 166.851 150.007 166.851 150.793V170.739V170.743Z" fill="#D9E2E7"/>
  <path d="M153.31 196.415H182.715V199.18H153.31V196.415Z" fill="#D9E2E7"/>
  <path d="M153.31 181.406H182.715V183.776H153.31V181.406Z" fill="#D9E2E7"/>
  <path d="M153.31 186.541H182.715V188.911H153.31V186.541Z" fill="#D9E2E7"/>
  <path d="M153.31 191.676H182.715V194.046H153.31V191.676Z" fill="#D9E2E7"/>
  <path d="M153.697 201.945H182.715V204.315H153.697V201.945Z" fill="#D9E2E7"/>
  <path d="M1229 46.7161C1228.95 46.9739 1228.91 47.2249 1228.86 47.4691C1228.81 47.7134 1228.76 47.9512 1228.72 48.1823C1228.67 48.4136 1228.62 48.6383 1228.57 48.8572C1228.53 49.076 1228.48 49.2884 1228.43 49.495C1228.38 49.7015 1228.33 49.9022 1228.28 50.0969C1228.23 50.2917 1228.18 50.4808 1228.13 50.6645C1228.08 50.848 1228.02 51.0263 1227.97 51.1989C1227.91 51.3718 1227.86 51.5391 1227.8 51.7017C1227.74 51.864 1227.68 52.0214 1227.62 52.1739C1227.56 52.3265 1227.5 52.4741 1227.44 52.617C1227.37 52.7599 1227.31 52.8985 1227.24 53.0323C1227.17 53.1662 1227.1 53.2958 1227.03 53.4213C1226.95 53.5468 1226.88 53.6679 1226.8 53.7853C1226.72 53.9027 1226.64 54.0159 1226.56 54.1255C1226.48 54.235 1226.39 54.3408 1226.3 54.4433C1226.21 54.5457 1226.12 54.6444 1226.02 54.7399C1225.93 54.8355 1225.83 54.9278 1225.73 55.017C1225.62 55.1061 1225.52 55.1923 1225.41 55.2756C1225.3 55.3588 1225.19 55.4394 1225.07 55.5172C1224.95 55.5951 1224.83 55.6703 1224.71 55.7432C1224.58 55.8161 1224.45 55.8864 1224.32 55.9547C1224.18 56.0229 1224.04 56.089 1223.9 56.1531C1223.76 56.2172 1223.61 56.2793 1223.46 56.34C1223.31 56.4004 1223.15 56.4591 1222.99 56.5166C1222.82 56.5738 1222.66 56.6295 1222.48 56.6841C1222.31 56.7386 1222.13 56.7916 1221.95 56.844C1221.77 56.896 1221.58 56.9471 1221.38 56.9975C1221.19 57.0478 1220.99 57.0972 1220.78 57.1458C1220.57 57.1947 1220.36 57.2428 1220.14 57.2904C1219.92 57.3381 1219.7 57.3855 1219.47 57.4329C1219.23 57.4801 1219 57.5272 1218.75 57.5744C1218.51 57.6215 1218.26 57.6687 1218 57.7161C1218.26 57.7635 1218.51 57.8106 1218.75 57.8578C1219 57.9049 1219.24 57.9521 1219.47 57.9992C1219.7 58.0464 1219.92 58.0938 1220.14 58.1417C1220.36 58.1896 1220.57 58.2377 1220.78 58.2863C1220.99 58.3352 1221.19 58.3846 1221.38 58.4347C1221.58 58.4848 1221.76 58.5359 1221.95 58.5882C1222.13 58.6402 1222.31 58.6935 1222.48 58.7481C1222.66 58.8026 1222.82 58.8583 1222.99 58.9156C1223.15 58.9728 1223.31 59.0315 1223.46 59.0921C1223.61 59.1526 1223.76 59.2147 1223.9 59.279C1224.04 59.3431 1224.18 59.4092 1224.32 59.4775C1224.45 59.5458 1224.58 59.6162 1224.71 59.6889C1224.83 59.7619 1224.95 59.837 1225.07 59.9149C1225.19 59.9927 1225.3 60.0733 1225.41 60.1566C1225.52 60.2398 1225.62 60.326 1225.73 60.4152C1225.83 60.5043 1225.93 60.5967 1226.02 60.6922C1226.12 60.7877 1226.21 60.8867 1226.3 60.9889C1226.39 61.0913 1226.48 61.1971 1226.56 61.3067C1226.64 61.4162 1226.72 61.5297 1226.8 61.6468C1226.88 61.7642 1226.95 61.8853 1227.03 62.0108C1227.1 62.1363 1227.17 62.2657 1227.24 62.3998C1227.31 62.5339 1227.37 62.6722 1227.44 62.8151C1227.5 62.9581 1227.56 63.1059 1227.62 63.2582C1227.68 63.4107 1227.74 63.5681 1227.8 63.7305C1227.86 63.8928 1227.91 64.0603 1227.97 64.2332C1228.02 64.4061 1228.08 64.5842 1228.13 64.7676C1228.18 64.9511 1228.23 65.1402 1228.28 65.3352C1228.33 65.5299 1228.38 65.7306 1228.43 65.9371C1228.48 66.1437 1228.53 66.3561 1228.57 66.575C1228.62 66.7935 1228.67 67.0185 1228.72 67.2499C1228.76 67.4812 1228.81 67.7189 1228.86 67.9631C1228.91 68.2074 1228.95 68.4584 1229 68.7161C1229.05 68.4582 1229.09 68.2072 1229.14 67.9631C1229.19 67.7187 1229.24 67.481 1229.28 67.2499C1229.33 67.0185 1229.38 66.7938 1229.43 66.575C1229.47 66.3561 1229.52 66.1437 1229.57 65.9371C1229.62 65.7306 1229.67 65.5299 1229.72 65.3352C1229.77 65.1404 1229.82 64.9513 1229.87 64.7676C1229.92 64.5839 1229.98 64.4059 1230.03 64.2332C1230.09 64.0605 1230.14 63.8931 1230.2 63.7305C1230.26 63.5681 1230.32 63.4107 1230.38 63.2582C1230.44 63.1057 1230.5 62.9581 1230.56 62.8151C1230.63 62.6722 1230.69 62.5337 1230.76 62.3998C1230.83 62.266 1230.9 62.1363 1230.97 62.0108C1231.05 61.8853 1231.12 61.7642 1231.2 61.6468C1231.28 61.5294 1231.36 61.4162 1231.44 61.3067C1231.52 61.1971 1231.61 61.0913 1231.7 60.9889C1231.79 60.8865 1231.88 60.7877 1231.98 60.6922C1232.07 60.5967 1232.17 60.5043 1232.27 60.4152C1232.38 60.326 1232.48 60.2398 1232.59 60.1566C1232.7 60.0733 1232.81 59.9927 1232.93 59.9149C1233.05 59.837 1233.17 59.7619 1233.29 59.6889C1233.42 59.616 1233.55 59.5458 1233.68 59.4775C1233.82 59.4092 1233.96 59.3431 1234.1 59.279C1234.24 59.2149 1234.39 59.1528 1234.54 59.0921C1234.69 59.0317 1234.85 58.973 1235.01 58.9156C1235.18 58.8583 1235.34 58.8026 1235.52 58.7481C1235.69 58.6935 1235.87 58.6405 1236.05 58.5882C1236.23 58.5361 1236.42 58.485 1236.62 58.4347C1236.81 58.3843 1237.01 58.335 1237.22 58.2863C1237.43 58.2375 1237.64 58.1893 1237.86 58.1417C1238.08 58.094 1238.3 58.0464 1238.53 57.9992C1238.77 57.9521 1239 57.9049 1239.25 57.8578C1239.49 57.8106 1239.74 57.7635 1240 57.7161C1239.74 57.6687 1239.49 57.6215 1239.25 57.5744C1239 57.5272 1238.76 57.4801 1238.53 57.4329C1238.3 57.3857 1238.08 57.3383 1237.86 57.2904C1237.64 57.2426 1237.43 57.1944 1237.22 57.1458C1237.01 57.0969 1236.81 57.0476 1236.62 56.9975C1236.42 56.9474 1236.24 56.8963 1236.05 56.844C1235.87 56.7919 1235.69 56.7386 1235.52 56.6841C1235.34 56.6295 1235.18 56.5738 1235.01 56.5166C1234.85 56.4593 1234.69 56.4007 1234.54 56.34C1234.39 56.2796 1234.24 56.2174 1234.1 56.1531C1233.96 56.089 1233.82 56.0229 1233.68 55.9547C1233.55 55.8864 1233.42 55.8159 1233.29 55.7432C1233.17 55.6703 1233.05 55.5951 1232.93 55.5172C1232.81 55.4394 1232.7 55.3588 1232.59 55.2756C1232.48 55.1923 1232.38 55.1061 1232.27 55.017C1232.17 54.9278 1232.07 54.8355 1231.98 54.7399C1231.88 54.6444 1231.79 54.5454 1231.7 54.4433C1231.61 54.3408 1231.52 54.235 1231.44 54.1255C1231.36 54.0159 1231.28 53.9024 1231.2 53.7853C1231.12 53.6679 1231.05 53.5468 1230.97 53.4213C1230.9 53.2958 1230.83 53.1664 1230.76 53.0323C1230.69 52.8982 1230.63 52.7599 1230.56 52.617C1230.5 52.4741 1230.44 52.3262 1230.38 52.1739C1230.32 52.0214 1230.26 51.864 1230.2 51.7017C1230.14 51.5393 1230.09 51.3718 1230.03 51.1989C1229.98 51.0263 1229.92 50.848 1229.87 50.6645C1229.82 50.4811 1229.77 50.2917 1229.72 50.0969C1229.67 49.9022 1229.62 49.7015 1229.57 49.495C1229.52 49.2884 1229.47 49.076 1229.43 48.8572C1229.38 48.6386 1229.33 48.4136 1229.28 48.1823C1229.24 47.9509 1229.19 47.7134 1229.14 47.4691C1229.09 47.2247 1229.05 46.9737 1229 46.7161Z" fill="#F5FDFC"/>
  <path d="M1208.36 3C1208.27 3.47712 1208.18 3.94166 1208.1 4.39378C1208.01 4.84591 1207.92 5.28596 1207.83 5.71396C1207.75 6.14196 1207.66 6.55824 1207.57 6.96298C1207.48 7.36773 1207.39 7.76111 1207.3 8.1433C1207.21 8.52549 1207.12 8.89684 1207.03 9.25735C1206.93 9.61803 1206.84 9.96788 1206.74 10.3078C1206.65 10.6475 1206.55 10.9772 1206.45 11.297C1206.35 11.6167 1206.24 11.9267 1206.14 12.2273C1206.03 12.5278 1205.92 12.8191 1205.81 13.1013C1205.7 13.3835 1205.58 13.6567 1205.47 13.9214C1205.35 14.1861 1205.22 14.4423 1205.1 14.6903C1204.97 14.9383 1204.84 15.1781 1204.71 15.4103C1204.57 15.6425 1204.43 15.8668 1204.29 16.0838C1204.15 16.3009 1204 16.5106 1203.84 16.7134C1203.69 16.9162 1203.53 17.1122 1203.36 17.3015C1203.2 17.4909 1203.03 17.6739 1202.85 17.8507C1202.67 18.0274 1202.49 18.1982 1202.3 18.3635C1202.11 18.5287 1201.92 18.6879 1201.71 18.8422C1201.51 18.9964 1201.3 19.1451 1201.08 19.2892C1200.87 19.4333 1200.64 19.5724 1200.41 19.7072C1200.18 19.842 1199.94 19.9725 1199.69 20.0987C1199.44 20.2251 1199.19 20.3473 1198.92 20.466C1198.66 20.5847 1198.38 20.6998 1198.1 20.8118C1197.82 20.9239 1197.53 21.0325 1197.23 21.1384C1196.93 21.2444 1196.62 21.3475 1196.3 21.4482C1195.98 21.5491 1195.65 21.6474 1195.31 21.7439C1194.97 21.8404 1194.62 21.9348 1194.26 22.0278C1193.9 22.1208 1193.53 22.2123 1193.14 22.3025C1192.76 22.3927 1192.37 22.4819 1191.96 22.5703C1191.56 22.6588 1191.14 22.7466 1190.71 22.834C1190.29 22.9214 1189.85 23.0085 1189.39 23.0957C1188.94 23.183 1188.48 23.2702 1188 23.3581C1188.48 23.4459 1188.94 23.5333 1189.39 23.6206C1189.85 23.7078 1190.29 23.7949 1190.71 23.8823C1191.14 23.9697 1191.56 24.0575 1191.96 24.1458C1192.37 24.2342 1192.76 24.3234 1193.14 24.4136C1193.53 24.5038 1193.9 24.5953 1194.26 24.6883C1194.62 24.7813 1194.97 24.8757 1195.31 24.9722C1195.65 25.0687 1195.98 25.1672 1196.3 25.2679C1196.62 25.3687 1196.93 25.4719 1197.23 25.5777C1197.53 25.6836 1197.82 25.7924 1198.1 25.9043C1198.38 26.0162 1198.66 26.1314 1198.92 26.2501C1199.19 26.3688 1199.44 26.4912 1199.69 26.6174C1199.94 26.7438 1200.18 26.8741 1200.41 27.0089C1200.64 27.1437 1200.87 27.2828 1201.08 27.4269C1201.3 27.571 1201.51 27.7199 1201.71 27.8741C1201.92 28.0283 1202.11 28.1878 1202.3 28.3528C1202.49 28.5179 1202.67 28.6887 1202.85 28.8656C1203.03 29.0426 1203.2 29.2254 1203.36 29.4148C1203.53 29.6041 1203.69 29.8001 1203.84 30.0029C1204 30.2057 1204.15 30.4155 1204.29 30.6325C1204.43 30.8495 1204.57 31.074 1204.71 31.3061C1204.84 31.5383 1204.97 31.778 1205.1 32.0261C1205.23 32.274 1205.35 32.5302 1205.47 32.7949C1205.58 33.0596 1205.7 33.3328 1205.81 33.615C1205.92 33.8972 1206.03 34.1885 1206.14 34.489C1206.24 34.7896 1206.35 35.0995 1206.45 35.4193C1206.55 35.7391 1206.65 36.0687 1206.74 36.4084C1206.84 36.7481 1206.93 37.0981 1207.03 37.4588C1207.12 37.8194 1207.21 38.1906 1207.3 38.5728C1207.39 38.955 1207.48 39.3484 1207.57 39.7531C1207.66 40.1579 1207.75 40.574 1207.83 41.0021C1207.92 41.4301 1208.01 41.8702 1208.1 42.3223C1208.18 42.7744 1208.27 43.239 1208.36 43.7161C1208.45 43.239 1208.53 42.7744 1208.62 42.3223C1208.71 41.8702 1208.79 41.4301 1208.88 41.0021C1208.97 40.5741 1209.06 40.1579 1209.15 39.7531C1209.23 39.3484 1209.32 38.955 1209.41 38.5728C1209.5 38.1906 1209.6 37.8193 1209.69 37.4588C1209.78 37.0981 1209.88 36.7482 1209.97 36.4084C1210.07 36.0687 1210.17 35.7391 1210.27 35.4193C1210.37 35.0995 1210.47 34.7896 1210.58 34.489C1210.68 34.1885 1210.79 33.8972 1210.9 33.615C1211.02 33.3328 1211.13 33.0596 1211.25 32.7949C1211.37 32.5302 1211.49 32.274 1211.62 32.0261C1211.74 31.778 1211.87 31.5383 1212.01 31.3061C1212.14 31.074 1212.28 30.8496 1212.43 30.6325C1212.57 30.4154 1212.72 30.2057 1212.87 30.0029C1213.03 29.8001 1213.19 29.6041 1213.35 29.4148C1213.52 29.2254 1213.69 29.0424 1213.87 28.8656C1214.04 28.6887 1214.23 28.518 1214.41 28.3528C1214.6 28.1878 1214.8 28.0283 1215 27.8741C1215.21 27.7199 1215.42 27.571 1215.63 27.4269C1215.85 27.2828 1216.07 27.1437 1216.31 27.0089C1216.54 26.8741 1216.78 26.7438 1217.03 26.6174C1217.27 26.491 1217.53 26.3688 1217.79 26.2501C1218.06 26.1314 1218.33 26.0163 1218.62 25.9043C1218.9 25.7924 1219.19 25.6836 1219.49 25.5777C1219.79 25.4717 1220.1 25.3686 1220.42 25.2679C1220.74 25.167 1221.07 25.0687 1221.41 24.9722C1221.75 24.8757 1222.1 24.7813 1222.46 24.6883C1222.82 24.5953 1223.19 24.5038 1223.57 24.4136C1223.96 24.3234 1224.35 24.2342 1224.75 24.1458C1225.16 24.0573 1225.57 23.9697 1226 23.8823C1226.43 23.7949 1226.87 23.7078 1227.32 23.6206C1227.77 23.5333 1228.24 23.4461 1228.72 23.3581C1228.24 23.2704 1227.77 23.183 1227.32 23.0957C1226.87 23.0085 1226.43 22.9214 1226 22.834C1225.57 22.7466 1225.16 22.6588 1224.75 22.5703C1224.35 22.4819 1223.95 22.3927 1223.57 22.3025C1223.19 22.2123 1222.82 22.1208 1222.46 22.0278C1222.1 21.9348 1221.75 21.8404 1221.41 21.7439C1221.07 21.6474 1220.74 21.549 1220.42 21.4482C1220.1 21.3475 1219.79 21.2444 1219.49 21.1384C1219.19 21.0325 1218.9 20.9237 1218.62 20.8118C1218.33 20.6999 1218.06 20.5849 1217.79 20.466C1217.53 20.3473 1217.27 20.2249 1217.03 20.0987C1216.78 19.9725 1216.54 19.842 1216.31 19.7072C1216.07 19.5724 1215.85 19.4333 1215.63 19.2892C1215.42 19.1451 1215.21 18.9962 1215 18.8422C1214.8 18.6879 1214.6 18.5285 1214.41 18.3635C1214.23 18.1984 1214.04 18.0276 1213.87 17.8507C1213.69 17.6737 1213.52 17.4909 1213.35 17.3015C1213.19 17.1122 1213.03 16.9162 1212.87 16.7134C1212.72 16.5106 1212.57 16.3008 1212.43 16.0838C1212.28 15.8668 1212.14 15.6423 1212.01 15.4103C1211.87 15.1781 1211.74 14.9383 1211.62 14.6903C1211.49 14.4424 1211.37 14.1861 1211.25 13.9214C1211.13 13.6567 1211.02 13.3835 1210.9 13.1013C1210.79 12.8191 1210.68 12.5278 1210.58 12.2273C1210.47 11.9267 1210.37 11.6167 1210.27 11.297C1210.17 10.9772 1210.07 10.6476 1209.97 10.3078C1209.88 9.96805 1209.78 9.61803 1209.69 9.25735C1209.6 8.89666 1209.5 8.52549 1209.41 8.1433C1209.32 7.76111 1209.23 7.36773 1209.15 6.96298C1209.06 6.55824 1208.97 6.14196 1208.88 5.71396C1208.79 5.28596 1208.71 4.84591 1208.62 4.39378C1208.53 3.94166 1208.45 3.47712 1208.36 3Z" fill="#F5FDFC"/>
  <path d="M126.83 0C126.797 0.183577 126.763 0.36226 126.729 0.536046C126.696 0.710007 126.662 0.879246 126.629 1.04377C126.595 1.20846 126.561 1.36844 126.527 1.52422C126.493 1.67999 126.459 1.83122 126.424 1.97826C126.39 2.1253 126.354 2.26814 126.319 2.40678C126.283 2.54543 126.247 2.68005 126.209 2.81082C126.172 2.94142 126.134 3.06836 126.096 3.19127C126.057 3.31435 126.017 3.43341 125.977 3.54915C125.936 3.66472 125.894 3.77679 125.851 3.88536C125.808 3.99393 125.764 4.09901 125.718 4.20076C125.672 4.30252 125.625 4.40113 125.577 4.49641C125.528 4.5917 125.478 4.68401 125.426 4.77335C125.374 4.86269 125.321 4.94888 125.265 5.03245C125.21 5.11602 125.153 5.19662 125.093 5.2746C125.034 5.35258 124.973 5.42793 124.909 5.50084C124.846 5.57374 124.78 5.64403 124.712 5.71204C124.644 5.78005 124.574 5.84579 124.501 5.90925C124.428 5.97272 124.353 6.03409 124.275 6.09335C124.197 6.15262 124.116 6.20997 124.032 6.26539C123.949 6.32081 123.863 6.37431 123.773 6.42624C123.684 6.47817 123.592 6.52817 123.496 6.57677C123.401 6.62538 123.303 6.67241 123.201 6.71804C123.099 6.76367 122.994 6.8079 122.885 6.85109C122.777 6.8941 122.665 6.93588 122.549 6.97679C122.434 7.01753 122.314 7.05722 122.191 7.09603C122.068 7.13484 121.942 7.17261 121.811 7.20985C121.68 7.24691 121.546 7.28328 121.407 7.31912C121.268 7.35496 121.125 7.3901 120.978 7.42472C120.831 7.45951 120.68 7.49378 120.524 7.5277C120.368 7.56162 120.208 7.59536 120.044 7.62911C119.879 7.66267 119.71 7.69624 119.536 7.72981C119.362 7.76338 119.183 7.79694 119 7.83069C119.184 7.86443 119.362 7.898 119.536 7.93157C119.71 7.96514 119.879 7.99871 120.044 8.03228C120.208 8.06584 120.368 8.09958 120.524 8.13368C120.68 8.16777 120.831 8.20204 120.978 8.23665C121.125 8.27145 121.268 8.30659 121.407 8.34225C121.545 8.37792 121.68 8.41429 121.811 8.45153C121.942 8.48859 122.068 8.52653 122.191 8.56534C122.314 8.60416 122.433 8.64385 122.549 8.68458C122.665 8.72532 122.777 8.7671 122.885 8.81029C122.994 8.8533 123.099 8.89753 123.201 8.94334C123.303 8.98897 123.401 9.036 123.496 9.0846C123.592 9.13321 123.684 9.18339 123.773 9.23514C123.863 9.28707 123.949 9.34056 124.032 9.39599C124.116 9.45141 124.197 9.50876 124.275 9.56803C124.353 9.62729 124.428 9.68866 124.501 9.75213C124.574 9.81559 124.644 9.88133 124.712 9.94934C124.78 10.0174 124.846 10.0878 124.909 10.1605C124.973 10.2334 125.034 10.3088 125.093 10.3868C125.153 10.4648 125.21 10.5455 125.265 10.6289C125.321 10.7125 125.374 10.7987 125.426 10.888C125.478 10.9774 125.528 11.0695 125.577 11.165C125.625 11.2604 125.672 11.3589 125.718 11.4606C125.764 11.5624 125.808 11.6676 125.851 11.776C125.894 11.8846 125.936 11.9967 125.977 12.1122C126.017 12.2278 126.057 12.347 126.096 12.4701C126.135 12.5932 126.172 12.72 126.209 12.8506C126.247 12.9812 126.283 13.1158 126.319 13.2546C126.354 13.3932 126.39 13.5361 126.424 13.6831C126.459 13.8302 126.493 13.9814 126.527 14.1372C126.561 14.2928 126.595 14.4529 126.629 14.6176C126.662 14.7823 126.696 14.9515 126.729 15.1253C126.763 15.2993 126.797 15.478 126.83 15.6614C126.864 15.4778 126.898 15.2991 126.931 15.1253C126.965 14.9514 126.998 14.7821 127.032 14.6176C127.065 14.4529 127.099 14.2929 127.133 14.1372C127.167 13.9814 127.202 13.8302 127.236 13.6831C127.271 13.5361 127.306 13.3932 127.342 13.2546C127.378 13.116 127.414 12.9813 127.451 12.8506C127.488 12.7198 127.526 12.593 127.565 12.4701C127.604 12.3472 127.643 12.228 127.684 12.1122C127.725 11.9967 127.767 11.8846 127.81 11.776C127.853 11.6674 127.897 11.5624 127.943 11.4606C127.989 11.3589 128.036 11.2603 128.084 11.165C128.133 11.0697 128.183 10.9774 128.235 10.888C128.287 10.7987 128.34 10.7125 128.396 10.6289C128.451 10.5454 128.508 10.4648 128.568 10.3868C128.627 10.3088 128.688 10.2334 128.752 10.1605C128.815 10.0876 128.881 10.0174 128.949 9.94934C129.017 9.88133 129.087 9.81559 129.16 9.75213C129.233 9.68866 129.308 9.62729 129.386 9.56803C129.464 9.50876 129.545 9.45141 129.629 9.39599C129.712 9.34056 129.798 9.28707 129.888 9.23514C129.977 9.18322 130.069 9.13321 130.165 9.0846C130.26 9.036 130.359 8.98897 130.46 8.94334C130.562 8.89771 130.667 8.85347 130.776 8.81029C130.884 8.76728 130.996 8.72549 131.112 8.68458C131.227 8.64385 131.347 8.60416 131.47 8.56534C131.593 8.52653 131.719 8.48877 131.85 8.45153C131.981 8.41446 132.115 8.3781 132.254 8.34225C132.393 8.30641 132.536 8.27127 132.683 8.23665C132.83 8.20186 132.981 8.16759 133.137 8.13368C133.292 8.09976 133.453 8.06584 133.617 8.03228C133.782 7.99871 133.951 7.96514 134.125 7.93157C134.299 7.898 134.478 7.86443 134.661 7.83069C134.477 7.79694 134.299 7.76338 134.125 7.72981C133.951 7.69624 133.782 7.66267 133.617 7.62911C133.453 7.59554 133.293 7.56179 133.137 7.5277C132.981 7.49361 132.83 7.45934 132.683 7.42472C132.536 7.38993 132.393 7.35479 132.254 7.31912C132.116 7.28345 131.981 7.24709 131.85 7.20985C131.719 7.17278 131.593 7.13484 131.47 7.09603C131.347 7.05722 131.228 7.01753 131.112 6.97679C130.996 6.93606 130.884 6.89427 130.776 6.85109C130.667 6.80808 130.562 6.76385 130.46 6.71804C130.359 6.67241 130.26 6.62538 130.165 6.57677C130.069 6.52817 129.977 6.47799 129.888 6.42624C129.798 6.37431 129.712 6.32081 129.629 6.26539C129.545 6.20997 129.464 6.15262 129.386 6.09335C129.308 6.03409 129.233 5.97272 129.16 5.90925C129.087 5.84579 129.017 5.78005 128.949 5.71204C128.881 5.64403 128.815 5.57357 128.752 5.50084C128.688 5.42793 128.627 5.35258 128.568 5.2746C128.508 5.19662 128.451 5.11585 128.396 5.03245C128.34 4.94888 128.287 4.86269 128.235 4.77335C128.183 4.68401 128.133 4.59187 128.084 4.49641C128.036 4.40095 127.989 4.30252 127.943 4.20076C127.897 4.09901 127.853 3.99376 127.81 3.88536C127.767 3.77679 127.725 3.66472 127.684 3.54915C127.643 3.43359 127.604 3.31435 127.565 3.19127C127.526 3.06836 127.488 2.94142 127.451 2.81082C127.414 2.68022 127.378 2.54543 127.342 2.40678C127.306 2.26814 127.271 2.1253 127.236 1.97826C127.202 1.83122 127.167 1.67999 127.133 1.52422C127.099 1.36861 127.065 1.20846 127.032 1.04377C126.998 0.879071 126.965 0.710007 126.931 0.536046C126.898 0.362085 126.864 0.183402 126.83 0Z" fill="#F5FDFC"/>
  <path d="M88.8303 11C88.7966 11.1836 88.763 11.3623 88.7295 11.536C88.6959 11.71 88.6623 11.8792 88.6288 12.0438C88.5952 12.2085 88.5614 12.3684 88.5273 12.5242C88.4934 12.68 88.459 12.8312 88.4244 12.9783C88.3896 13.1253 88.3544 13.2681 88.3188 13.4068C88.2831 13.5454 88.2467 13.68 88.2095 13.8108C88.1724 13.9414 88.1345 14.0684 88.0958 14.1913C88.057 14.3144 88.0173 14.4334 87.9766 14.5492C87.9359 14.6647 87.8941 14.7768 87.8511 14.8854C87.8081 14.9939 87.7637 15.099 87.718 15.2008C87.6724 15.3025 87.6254 15.4011 87.5768 15.4964C87.5282 15.5917 87.478 15.684 87.4262 15.7733C87.3743 15.8627 87.3208 15.9489 87.2654 16.0325C87.21 16.116 87.1526 16.1966 87.0933 16.2746C87.0341 16.3526 86.9727 16.4279 86.9092 16.5008C86.8458 16.5737 86.7801 16.644 86.712 16.712C86.644 16.7801 86.5736 16.8458 86.5008 16.9093C86.4279 16.9727 86.3526 17.0341 86.2746 17.0934C86.1966 17.1526 86.1158 17.21 86.0324 17.2654C85.9489 17.3208 85.8627 17.3743 85.7733 17.4262C85.684 17.4782 85.5919 17.5282 85.4964 17.5768C85.401 17.6254 85.3025 17.6724 85.2008 17.718C85.099 17.7637 84.9938 17.8079 84.8854 17.8511C84.7768 17.8941 84.6647 17.9359 84.5491 17.9768C84.4336 18.0175 84.3143 18.0572 84.1913 18.096C84.0683 18.1348 83.9416 18.1726 83.8108 18.2098C83.6802 18.2469 83.5456 18.2833 83.4068 18.3191C83.2681 18.355 83.1253 18.3901 82.9782 18.4247C82.8312 18.4595 82.68 18.4938 82.5242 18.5277C82.3684 18.5616 82.2085 18.5954 82.0438 18.6291C81.8791 18.6627 81.7098 18.6962 81.5361 18.7298C81.3621 18.7634 81.1834 18.7969 81 18.8307C81.1836 18.8644 81.3621 18.898 81.5361 18.9316C81.71 18.9651 81.8792 18.9987 82.0438 19.0323C82.2085 19.0658 82.3684 19.0996 82.5242 19.1337C82.68 19.1678 82.8312 19.202 82.9782 19.2367C83.1253 19.2714 83.2681 19.3066 83.4068 19.3423C83.5454 19.3779 83.6801 19.4143 83.8108 19.4515C83.9416 19.4886 84.0683 19.5265 84.1913 19.5653C84.3142 19.6042 84.4334 19.6438 84.5491 19.6846C84.6647 19.7253 84.7768 19.7671 84.8854 19.8103C84.9939 19.8533 85.099 19.8975 85.2008 19.9433C85.3025 19.989 85.4011 20.036 85.4964 20.0846C85.5919 20.1332 85.684 20.1834 85.7733 20.2351C85.8627 20.2871 85.9489 20.3406 86.0324 20.396C86.116 20.4514 86.1966 20.5088 86.2746 20.568C86.3526 20.6273 86.4279 20.6887 86.5008 20.7521C86.5737 20.8156 86.644 20.8813 86.712 20.9493C86.7801 21.0174 86.8458 21.0878 86.9092 21.1605C86.9727 21.2334 87.0341 21.3088 87.0933 21.3868C87.1526 21.4648 87.21 21.5455 87.2654 21.6289C87.3208 21.7125 87.3743 21.7987 87.4262 21.888C87.4782 21.9774 87.5282 22.0695 87.5768 22.165C87.6254 22.2604 87.6724 22.3589 87.718 22.4606C87.7637 22.5624 87.8079 22.6676 87.8511 22.776C87.8941 22.8846 87.9359 22.9967 87.9766 23.1122C88.0173 23.2278 88.057 23.347 88.0958 23.4701C88.1347 23.5932 88.1724 23.72 88.2095 23.8506C88.2466 23.9812 88.2829 24.1158 88.3188 24.2546C88.3544 24.3932 88.3897 24.5361 88.4244 24.6831C88.4592 24.8302 88.4934 24.9814 88.5273 25.1372C88.5614 25.2928 88.5952 25.4529 88.6288 25.6176C88.6623 25.7823 88.6959 25.9515 88.7295 26.1253C88.763 26.2993 88.7966 26.478 88.8303 26.6614C88.8641 26.4778 88.8977 26.2991 88.9312 26.1253C88.9648 25.9514 88.9983 25.7821 89.0319 25.6176C89.0655 25.4529 89.0992 25.2929 89.1333 25.1372C89.1672 24.9814 89.2017 24.8302 89.2363 24.6831C89.2709 24.5361 89.3062 24.3932 89.3419 24.2546C89.3776 24.116 89.4139 23.9813 89.4512 23.8506C89.4884 23.7198 89.5262 23.593 89.565 23.4701C89.6038 23.3472 89.6435 23.228 89.6842 23.1122C89.725 22.9967 89.7668 22.8846 89.8099 22.776C89.853 22.6674 89.8972 22.5624 89.943 22.4606C89.9888 22.3589 90.0356 22.2603 90.0843 22.165C90.1329 22.0697 90.183 21.9774 90.2348 21.888C90.2867 21.7987 90.3402 21.7125 90.3956 21.6289C90.4511 21.5454 90.5084 21.4648 90.5677 21.3868C90.6269 21.3088 90.6883 21.2334 90.7518 21.1605C90.8152 21.0876 90.881 21.0174 90.949 20.9493C91.017 20.8813 91.0875 20.8156 91.1602 20.7521C91.2331 20.6887 91.3084 20.6273 91.3864 20.568C91.4644 20.5088 91.5452 20.4514 91.6286 20.396C91.712 20.3406 91.7983 20.2871 91.8877 20.2351C91.977 20.1832 92.0692 20.1332 92.1646 20.0846C92.2601 20.036 92.3585 19.989 92.4603 19.9433C92.562 19.8977 92.6671 19.8535 92.7757 19.8103C92.8842 19.7673 92.9961 19.7255 93.1119 19.6846C93.2274 19.6438 93.3467 19.6042 93.4698 19.5653C93.5927 19.5265 93.7194 19.4888 93.8502 19.4515C93.9808 19.4145 94.1154 19.3781 94.2542 19.3423C94.3929 19.3064 94.5357 19.2713 94.6828 19.2367C94.8298 19.2019 94.981 19.1676 95.1368 19.1337C95.2924 19.0998 95.4526 19.0658 95.6173 19.0323C95.7819 18.9987 95.9512 18.9651 96.125 18.9316C96.2989 18.898 96.4776 18.8644 96.661 18.8307C96.4774 18.7969 96.2989 18.7634 96.125 18.7298C95.951 18.6962 95.7818 18.6627 95.6173 18.6291C95.4526 18.5955 95.2926 18.5618 95.1368 18.5277C94.981 18.4936 94.8298 18.4593 94.6828 18.4247C94.5357 18.3899 94.3929 18.3548 94.2542 18.3191C94.1156 18.2835 93.981 18.2471 93.8502 18.2098C93.7194 18.1728 93.5927 18.1348 93.4698 18.096C93.3469 18.0572 93.2276 18.0175 93.1119 17.9768C92.9963 17.9361 92.8842 17.8943 92.7757 17.8511C92.6671 17.8081 92.562 17.7638 92.4603 17.718C92.3585 17.6724 92.2599 17.6254 92.1646 17.5768C92.0692 17.5282 91.977 17.478 91.8877 17.4262C91.7983 17.3743 91.7121 17.3208 91.6286 17.2654C91.545 17.21 91.4644 17.1526 91.3864 17.0934C91.3084 17.0341 91.2331 16.9727 91.1602 16.9093C91.0873 16.8458 91.017 16.7801 90.949 16.712C90.881 16.644 90.8152 16.5736 90.7518 16.5008C90.6883 16.4279 90.6269 16.3526 90.5677 16.2746C90.5084 16.1966 90.4511 16.1158 90.3956 16.0325C90.3402 15.9489 90.2867 15.8627 90.2348 15.7733C90.1829 15.684 90.1329 15.5919 90.0843 15.4964C90.0356 15.401 89.9886 15.3025 89.943 15.2008C89.8974 15.099 89.8531 14.9938 89.8099 14.8854C89.7669 14.7768 89.7251 14.6647 89.6842 14.5492C89.6435 14.4336 89.6038 14.3144 89.565 14.1913C89.5262 14.0684 89.4884 13.9414 89.4512 13.8108C89.4139 13.6802 89.3777 13.5454 89.3419 13.4068C89.3062 13.2681 89.2709 13.1253 89.2363 12.9783C89.2015 12.8312 89.1672 12.68 89.1333 12.5242C89.0992 12.3686 89.0655 12.2085 89.0319 12.0438C88.9983 11.8791 88.9648 11.71 88.9312 11.536C88.8978 11.3621 88.8643 11.1834 88.8303 11Z" fill="#F5FDFC"/>
  <path d="M141.831 42C141.797 42.1836 141.763 42.3623 141.73 42.536C141.696 42.71 141.662 42.8793 141.629 43.0438C141.595 43.2085 141.562 43.3684 141.528 43.5242C141.494 43.68 141.459 43.8312 141.425 43.9783C141.39 44.1253 141.355 44.2681 141.319 44.4068C141.283 44.5454 141.247 44.6801 141.21 44.8108C141.173 44.9414 141.135 45.0684 141.096 45.1913C141.057 45.3142 141.018 45.4334 140.977 45.5491C140.936 45.6647 140.894 45.7768 140.851 45.8854C140.808 45.9939 140.764 46.099 140.718 46.2009C140.673 46.3027 140.626 46.4013 140.577 46.4966C140.528 46.5919 140.478 46.6842 140.426 46.7735C140.374 46.8629 140.321 46.9491 140.266 47.0326C140.21 47.116 140.153 47.1968 140.094 47.2748C140.034 47.3527 139.973 47.4281 139.909 47.501C139.846 47.5739 139.78 47.6442 139.712 47.7122C139.644 47.7802 139.574 47.846 139.501 47.9094C139.428 47.9729 139.353 48.0343 139.275 48.0935C139.197 48.1528 139.116 48.2101 139.033 48.2656C138.949 48.321 138.863 48.3745 138.774 48.4264C138.684 48.4783 138.592 48.5283 138.497 48.5769C138.401 48.6255 138.303 48.6726 138.201 48.7182C138.099 48.7638 137.994 48.8081 137.885 48.8513C137.777 48.8943 137.665 48.9361 137.549 48.9768C137.434 49.0175 137.314 49.0572 137.191 49.096C137.068 49.1348 136.941 49.1726 136.811 49.2097C136.68 49.2467 136.546 49.2831 136.407 49.3189C136.268 49.3546 136.125 49.3899 135.978 49.4245C135.831 49.4593 135.68 49.4936 135.524 49.5275C135.369 49.5616 135.208 49.5954 135.044 49.6289C134.879 49.6625 134.71 49.6961 134.536 49.7296C134.362 49.7632 134.183 49.7968 134 49.8305C134.184 49.8643 134.362 49.8978 134.536 49.9314C134.71 49.965 134.879 49.9985 135.044 50.0321C135.208 50.0657 135.368 50.0994 135.524 50.1335C135.68 50.1676 135.831 50.2019 135.978 50.2365C136.125 50.2713 136.268 50.3064 136.407 50.3421C136.545 50.3777 136.68 50.4141 136.811 50.4514C136.942 50.4884 137.068 50.5264 137.191 50.5652C137.314 50.604 137.433 50.6437 137.549 50.6844C137.665 50.7251 137.777 50.7669 137.885 50.8101C137.994 50.8531 138.099 50.8974 138.201 50.9432C138.303 50.9888 138.401 51.0358 138.497 51.0844C138.592 51.133 138.684 51.1832 138.774 51.235C138.863 51.2867 138.949 51.3404 139.033 51.3958C139.116 51.4512 139.197 51.5084 139.275 51.5678C139.353 51.6271 139.428 51.6885 139.501 51.752C139.574 51.8154 139.644 51.8812 139.712 51.9492C139.78 52.0172 139.846 52.0876 139.909 52.1604C139.973 52.2333 140.034 52.3086 140.094 52.3866C140.153 52.4646 140.21 52.5454 140.266 52.6288C140.321 52.7121 140.374 52.7985 140.426 52.8879C140.478 52.9772 140.528 53.0693 140.577 53.1648C140.626 53.2603 140.673 53.3587 140.718 53.4606C140.764 53.5624 140.808 53.6674 140.851 53.776C140.894 53.8846 140.936 53.9967 140.977 54.1122C141.018 54.2278 141.057 54.347 141.096 54.4701C141.135 54.5932 141.173 54.7199 141.21 54.8505C141.247 54.9813 141.283 55.116 141.319 55.2546C141.355 55.3932 141.39 55.5361 141.425 55.6831C141.459 55.8302 141.494 55.9814 141.528 56.1372C141.562 56.2928 141.595 56.4529 141.629 56.6176C141.662 56.7823 141.696 56.9514 141.73 57.1253C141.763 57.2993 141.797 57.478 141.831 57.6614C141.864 57.4778 141.898 57.2991 141.931 57.1253C141.965 56.9514 141.999 56.7821 142.032 56.6176C142.066 56.4529 142.099 56.2929 142.134 56.1372C142.168 55.9814 142.202 55.8302 142.236 55.6831C142.271 55.5361 142.306 55.3932 142.342 55.2546C142.378 55.116 142.414 54.9813 142.451 54.8505C142.488 54.7199 142.526 54.593 142.565 54.4701C142.604 54.3472 142.643 54.228 142.684 54.1122C142.725 53.9967 142.767 53.8846 142.81 53.776C142.853 53.6674 142.897 53.5624 142.943 53.4606C142.988 53.3589 143.035 53.2603 143.084 53.1648C143.133 53.0693 143.183 52.9772 143.235 52.8879C143.287 52.7985 143.34 52.7123 143.395 52.6288C143.451 52.5452 143.508 52.4646 143.567 52.3866C143.627 52.3086 143.688 52.2333 143.752 52.1604C143.815 52.0875 143.881 52.0172 143.949 51.9492C144.017 51.8812 144.087 51.8154 144.16 51.752C144.233 51.6885 144.308 51.6271 144.386 51.5678C144.464 51.5086 144.545 51.4512 144.628 51.3958C144.712 51.3404 144.798 51.2869 144.887 51.235C144.977 51.183 145.069 51.133 145.164 51.0844C145.26 51.0358 145.358 50.9888 145.46 50.9432C145.562 50.8975 145.667 50.8533 145.776 50.8101C145.884 50.7671 145.996 50.7253 146.112 50.6844C146.227 50.6437 146.347 50.604 146.47 50.5652C146.593 50.5264 146.719 50.4886 146.85 50.4514C146.981 50.4143 147.115 50.3779 147.254 50.3421C147.393 50.3062 147.536 50.2711 147.683 50.2365C147.83 50.2017 147.981 50.1674 148.137 50.1335C148.292 50.0994 148.453 50.0657 148.617 50.0321C148.782 49.9985 148.951 49.965 149.125 49.9314C149.299 49.8978 149.478 49.8643 149.661 49.8305C149.477 49.7968 149.299 49.7632 149.125 49.7296C148.951 49.6961 148.782 49.6627 148.617 49.6289C148.453 49.5952 148.293 49.5616 148.137 49.5275C147.981 49.4934 147.83 49.4592 147.683 49.4245C147.536 49.3898 147.393 49.3546 147.254 49.3189C147.116 49.2831 146.981 49.2469 146.85 49.2097C146.719 49.1726 146.593 49.1347 146.47 49.096C146.347 49.0574 146.228 49.0175 146.112 48.9768C145.996 48.9361 145.884 48.8943 145.776 48.8513C145.667 48.8083 145.562 48.764 145.46 48.7182C145.358 48.6726 145.26 48.6255 145.164 48.5769C145.069 48.5283 144.977 48.4782 144.887 48.4264C144.798 48.3745 144.712 48.321 144.628 48.2656C144.545 48.2101 144.464 48.1528 144.386 48.0935C144.308 48.0343 144.233 47.9729 144.16 47.9094C144.087 47.846 144.017 47.7802 143.949 47.7122C143.881 47.6442 143.815 47.5737 143.752 47.501C143.688 47.4281 143.627 47.3527 143.567 47.2748C143.508 47.1968 143.451 47.116 143.395 47.0326C143.34 46.9492 143.287 46.8629 143.235 46.7735C143.183 46.6842 143.133 46.592 143.084 46.4966C143.035 46.4011 142.988 46.3027 142.943 46.2009C142.897 46.0992 142.853 45.9939 142.81 45.8854C142.767 45.7768 142.725 45.6649 142.684 45.5491C142.643 45.4336 142.604 45.3143 142.565 45.1913C142.526 45.0684 142.488 44.9414 142.451 44.8108C142.414 44.6801 142.378 44.5454 142.342 44.4068C142.306 44.2681 142.271 44.1253 142.236 43.9783C142.202 43.8312 142.167 43.68 142.134 43.5242C142.099 43.3686 142.066 43.2085 142.032 43.0438C141.999 42.8791 141.965 42.71 141.931 42.536C141.898 42.3623 141.864 42.1836 141.831 42Z" fill="#F5FDFC"/>
  <path d="M101.358 31C101.27 31.4771 101.183 31.9417 101.096 32.3938C101.008 32.8459 100.921 33.286 100.834 33.714C100.746 34.142 100.659 34.5582 100.57 34.963C100.482 35.3677 100.393 35.7611 100.302 36.1433C100.212 36.5255 100.121 36.8968 100.028 37.2573C99.9348 37.618 99.8404 37.9679 99.7439 38.3078C99.6474 38.6476 99.549 38.977 99.4483 39.2968C99.3476 39.6166 99.2442 39.9266 99.1384 40.2271C99.0325 40.5276 98.9237 40.8189 98.8119 41.1011C98.7 41.3833 98.5849 41.6565 98.4662 41.9212C98.3475 42.1859 98.2251 42.4421 98.0989 42.6902C97.9725 42.9381 97.8422 43.178 97.7074 43.4101C97.5726 43.6423 97.4335 43.8666 97.2894 44.0838C97.1453 44.3009 96.9964 44.5106 96.8422 44.7134C96.688 44.9162 96.5285 45.1122 96.3635 45.3015C96.1984 45.4909 96.0276 45.6739 95.8507 45.8507C95.6739 46.0276 95.4909 46.1982 95.3015 46.3635C95.1122 46.5285 94.9162 46.6879 94.7134 46.8422C94.5106 46.9964 94.3007 47.1453 94.0838 47.2894C93.8668 47.4334 93.6423 47.5726 93.4102 47.7074C93.178 47.8422 92.9381 47.9726 92.6902 48.0989C92.4423 48.2251 92.186 48.3475 91.9213 48.4662C91.6566 48.5849 91.3833 48.6999 91.1011 48.8118C90.8189 48.9237 90.5276 49.0325 90.2271 49.1384C89.9266 49.2444 89.6166 49.3475 89.2968 49.4482C88.977 49.5491 88.6475 49.6474 88.3078 49.7439C87.968 49.8404 87.618 49.9348 87.2574 50.0278C86.8967 50.1208 86.5255 50.2123 86.1433 50.3025C85.7611 50.3927 85.3677 50.4819 84.963 50.5703C84.5582 50.6588 84.1421 50.7466 83.714 50.834C83.286 50.9214 82.8459 51.0085 82.3938 51.0957C81.9417 51.183 81.4771 51.2702 81 51.3581C81.4771 51.4459 81.9417 51.5333 82.3938 51.6206C82.8459 51.7078 83.286 51.7949 83.714 51.8823C84.142 51.9697 84.5582 52.0575 84.963 52.146C85.3677 52.2344 85.7611 52.3236 86.1433 52.4138C86.5257 52.504 86.8968 52.5954 87.2574 52.6885C87.618 52.7815 87.9679 52.8759 88.3078 52.9724C88.6475 53.0689 88.977 53.1673 89.2968 53.268C89.6166 53.3687 89.9266 53.4721 90.2271 53.5779C90.5276 53.6838 90.8189 53.7925 91.1011 53.9044C91.3833 54.0163 91.6566 54.1314 91.9213 54.2503C92.186 54.3691 92.4421 54.4914 92.6902 54.6176C92.9381 54.744 93.178 54.8743 93.4102 55.0091C93.6423 55.1438 93.8666 55.283 94.0838 55.4271C94.3009 55.5711 94.5106 55.7201 94.7134 55.8743C94.9162 56.0285 95.1122 56.188 95.3015 56.353C95.4909 56.5181 95.6739 56.6889 95.8507 56.8658C96.0276 57.0427 96.1982 57.2256 96.3635 57.415C96.5285 57.6043 96.688 57.8003 96.8422 58.0031C96.9964 58.2059 97.1453 58.4157 97.2894 58.6327C97.4335 58.8497 97.5726 59.0741 97.7074 59.3063C97.8422 59.5385 97.9726 59.7784 98.0989 60.0263C98.2253 60.2742 98.3475 60.5305 98.4662 60.7952C98.5849 61.0599 98.7 61.3332 98.8119 61.6154C98.9237 61.8976 99.0325 62.1888 99.1384 62.4894C99.2444 62.7899 99.3476 63.0999 99.4483 63.4197C99.549 63.7394 99.6474 64.069 99.7439 64.4087C99.8404 64.7484 99.9348 65.0984 100.028 65.4591C100.121 65.8198 100.212 66.191 100.302 66.5732C100.393 66.9555 100.482 67.3487 100.57 67.7535C100.659 68.1582 100.747 68.5745 100.834 69.0025C100.921 69.4305 101.008 69.8706 101.096 70.3227C101.183 70.7748 101.27 71.2393 101.358 71.7165C101.446 71.2393 101.533 70.7748 101.62 70.3227C101.708 69.8706 101.795 69.4305 101.882 69.0025C101.97 68.5745 102.057 68.1582 102.146 67.7535C102.234 67.3487 102.323 66.9554 102.414 66.5732C102.504 66.191 102.595 65.8196 102.688 65.4591C102.781 65.0984 102.876 64.7486 102.972 64.4087C103.069 64.0688 103.167 63.7394 103.268 63.4197C103.369 63.0999 103.472 62.7899 103.578 62.4894C103.683 62.1888 103.792 61.8976 103.904 61.6154C104.016 61.3332 104.131 61.0599 104.25 60.7952C104.369 60.5305 104.491 60.2744 104.617 60.0263C104.744 59.7782 104.874 59.5385 105.009 59.3063C105.144 59.0741 105.283 58.8498 105.427 58.6327C105.571 58.4155 105.72 58.2059 105.874 58.0031C106.028 57.8003 106.188 57.6043 106.353 57.415C106.518 57.2256 106.689 57.0426 106.865 56.8658C107.042 56.6889 107.225 56.5182 107.415 56.353C107.604 56.188 107.8 56.0285 108.003 55.8743C108.206 55.7201 108.415 55.5711 108.632 55.4271C108.849 55.283 109.074 55.1438 109.306 55.0091C109.538 54.8743 109.778 54.7438 110.026 54.6176C110.274 54.4912 110.53 54.369 110.795 54.2503C111.06 54.1315 111.333 54.0165 111.615 53.9044C111.897 53.7925 112.188 53.6838 112.489 53.5779C112.79 53.4719 113.1 53.3687 113.419 53.268C113.739 53.1672 114.069 53.0689 114.408 52.9724C114.748 52.8759 115.098 52.7815 115.459 52.6885C115.819 52.5954 116.191 52.504 116.573 52.4138C116.955 52.3236 117.348 52.2344 117.753 52.146C118.158 52.0575 118.574 51.9697 119.002 51.8823C119.43 51.7949 119.87 51.7078 120.322 51.6206C120.774 51.5333 121.239 51.4461 121.716 51.3581C121.239 51.2704 120.774 51.183 120.322 51.0957C119.87 51.0085 119.43 50.9214 119.002 50.834C118.574 50.7466 118.158 50.6588 117.753 50.5703C117.348 50.4819 116.955 50.3927 116.573 50.3025C116.191 50.2123 115.819 50.1208 115.459 50.0278C115.098 49.9348 114.748 49.8404 114.408 49.7439C114.069 49.6474 113.739 49.5489 113.419 49.4482C113.1 49.3475 112.79 49.2444 112.489 49.1384C112.188 49.0325 111.897 48.9237 111.615 48.8118C111.333 48.6999 111.06 48.5849 110.795 48.4662C110.53 48.3475 110.274 48.2251 110.026 48.0989C109.778 47.9726 109.538 47.8422 109.306 47.7074C109.074 47.5726 108.849 47.4334 108.632 47.2894C108.415 47.1453 108.206 46.9964 108.003 46.8422C107.8 46.6879 107.604 46.5285 107.415 46.3635C107.225 46.1984 107.042 46.0276 106.865 45.8507C106.689 45.6739 106.518 45.4909 106.353 45.3015C106.187 45.1122 106.028 44.9162 105.874 44.7134C105.72 44.5106 105.571 44.3007 105.427 44.0838C105.283 43.8668 105.144 43.6423 105.009 43.4101C104.874 43.178 104.743 42.9383 104.617 42.6902C104.491 42.4423 104.369 42.1859 104.25 41.9212C104.131 41.6565 104.016 41.3833 103.904 41.1011C103.792 40.8189 103.684 40.5276 103.578 40.2271C103.472 39.9266 103.369 39.6166 103.268 39.2968C103.167 38.977 103.069 38.6475 102.972 38.3078C102.876 37.9681 102.781 37.618 102.688 37.2573C102.595 36.8967 102.504 36.5255 102.414 36.1433C102.323 35.7609 102.234 35.3677 102.146 34.963C102.057 34.5582 101.97 34.142 101.882 33.714C101.795 33.286 101.708 32.8459 101.62 32.3938C101.533 31.9417 101.446 31.4771 101.358 31Z" fill="#F5FDFC"/>
</svg>