<?xml version="1.0" encoding="UTF-8"?><svg xmlns="http://www.w3.org/2000/svg" id="_レイヤー_1" version="1.1" viewBox="0 0 851.9 930.8" width="851.900024px" height="930.799988px" preserveAspectRatio="none" style="width: 851.900024px; height: 930.799988px;">
  <!-- Generator: Adobe Illustrator 29.2.1, SVG Export Plug-In . SVG Version: 2.1.0 Build 116)  -->
  <defs>
    <style>
      .st0 {
        fill: #ef1452;
      }

      .st1 {
        fill: #191511;
      }

      .st2 {
        fill: #ee633b;
      }
    </style>
  </defs>
  <path class="st2" d="M829.1,604.4c-1.5-9.5-3.6-13.3,4.7-19.7,6.5-8.9,4.4-19.8,7.7-28.5,6.7-17.8-.7-30.9,1.8-52.3,6.7-35.7,13.9-55.7,2.9-88.5-6.9-20.5-16.4-29.3-23.9-38.5-8.7-10.7-6.5-8.5-13.8-21.7-24.2-43.3-31.2-52.3-47.2-67.3s-95-46-95-46l51-95,7-85L628.5,0l-129.2,17.2-78.5,73.5,23,77.1,43,52.5s-9.8,6.7-10.6,6.9c-1,.2-3.6-1.1-5.3-1.3-13.2-1.3-17.4,1.2-28.6,2.4-16.1.6-24.1-2.2-38,8.6-10.6-3-12.1-.7-21.1,2.4-5.7.5-15.1-3.1-21-3.9-13.8-1.9-28.8-.1-41.8,3.7-6.4-9.6-22.1-9.4-28.6-13.4-3.6-2.4-8-10.1-13.4-13.6-9.8-6.1-25.5-11.9-36.6-15.4-9.6-15.5-26.1-21.4-41.6-29.5-1.1-2.2,1.5-14.9,1.6-18.5,1.5-18.3-7.7-41.1,1-56.9,5.4-23.4-23.5-23.8-31.2-2.2-3.1,7.9-2.4,16.6-4.9,24.5-24.2-2.2-41.1-87.1-62.4-84-18.9,2.4-1.9,29.6,2.7,37.9,1.1.7,3.4,0,4.8.2-4.7,4.8-2.2,3.8-.5,8,1.6,4,2.3,8.1,4,12h4.5l-4,2,1,4c-16.5-17.1-29-44.2-46-60.5-5.4-5.5-14.4-9.2-18.6-.5-6.2,12.8,14,31.8,20,42.1l2.1,1,4.5-2c-7,9.2,5,16.6,8,25-16.6-11.2-33.9-34.9-50.8-44.7-8.3-4.8-19.8-5.1-19.2,7.1.4,9,25,26.4,30.1,35l5.9.6c-.2,1.9-1.3,2.9-.5,4.9.9,2.6,15.6,17,14.5,18.1-16.8-7.8-39.3-23.9-57.5-26.1-8.6.5-11.7,8.3-7.3,15.4,4.4,7.1,25.1,16,33.1,20.9,7.3,4.4,14.2,9.7,21.7,13.8-3.3,3.9-23.1-3.4-29.5-3-9.6-1.2-26.1-3.5-22.3,11.2,8.9,11.8,29,11,41.6,15.4,2,.7,15.2,6.1,16.2,6.9,4.8,3.8,13.4,17.6,18.4,23.1,14.4,12.3,24.5,27.2,44.1,32.4,3.4,22.3,24.1,37.3,43,46,11.9,17.3,9.6,17.2,29.4,28.6,13.7,10.1,21.7,21,37.4,29.6,6.5,3.5,18.7,11.1,24.5,13.5,41.2,17.3,84.4,7.4,126.7,18.3,6.7.7,15.2,0,21.9,1.1,11.3,1.8,23,8.6,34.9,7.9,1,.2,5.3,11.6,6.5,13.7,1.7,3,6.5,7.7,7.4,10.6-.3,10.9.7,10.6,8.7,17.5,1.6,4.4-1.6,11.8-2,16.7-.9,12.7,3.7,19.4,7.1,30.9-9.9,2.6-10.3,10.6-11.2,19.4-3.1,1.7-6.6.8-9.9,1.6-2,.6-4.4,3.1-5.6,3.3-1.4.2-6.4-3.1-9.1-3.6-12.1-2-11.9-2.1-23-6-42.8-15-81.1-16-124.9-20.1-48.1-2.5-86.7,19.7-94.3,69.5-12.1,15.9-10.1,26.7-14.3,43.7-8.4,20-14.7,32.8-15.2,55.8-2.8,12.2-10.6,14.3-10,32.4,2.4,17.7,6.6,12.9-2.3,29.2-.7,3.6.7,8.8-1.3,11.7-1.6,2.4-14.3,6.3-17.8,8.2-24.1,22.2-50.3,4.8-71.7,38.3-28.6,23.4,5.3,60.8,33.2,63.9,42.6,7.3,55.5-13.5,91.8-19,14.1-2.2,31-.6,43.1-9.8,11.9-10,22.3-33.9,18.5-49.4.1-1.2,5-10.4,6.1-13,1.6-3.9.1-6.5,4.4-9.6,19.4-11.8,21-23.4,24.8-42.2,18.6-21.8,14.5-23.6,23.5-48.5,3-6.6,10-12.1,8.3-21.2,6.4-1.9,10.9,3.6,17.2-2,16.9,7.1,34.2,13.4,51.4,19.6,6.6,2.9,28.2,6.1,29.3,13.2-9.9,4.2-19.7,9.8-28.5,16-5.5,6.7-12.6,9.5-20,13-3.4,2.3-33.3,32.5-35.3,35.7-3.7,5.8-7.1,16.7-11.3,21.7-14.4,11.9-12.8,18.8-19.1,33.4-15,5.2-26.5,21.8-32,36.5-2.2,9.3-2.2,13.8-12.7,18.3-27.4,26.7-37.9,24.3-70.8,35.2-86.9,48.8-5.5,139,95,59,11.7-6.7,24.4-12,36-19,5.9-3.6,18.7-14.6,24.2-14.9,22.2-1.3,27.7-9.1,44-21.9,12.9-8.4,19.5-14,27.4-27.6,22.5-15.7,17.8-11.2,33-34,5.6-6.4,15.1-5.5,18.4-15.7.4-1.2-.4-2.6-.3-2.7,1-.8,10.6-2.2,13.7-3.9,8.8-8.4,9.6-7.8,20.8-12,107.9-40.5,153.5-92.6,156.7-103.5,7.6-11.3,11.2-32.5,18.4-43.6,3.1-5.3,10.4-10.4,14.2-17.8,4.5-8.9,2.5-12.5,4.3-20.7,2.1-10.8,15.6,2.8,30.4-28.6,4.6-9.9,5.1-18.3,8.2-28.7.7-2.5,2.3-15.2,4.8-15.2,13.4,21.6-12.7,37.1.3,65.3-16.8,14.2-24.6,33.7-40.3,48.7-6.2,5.9-13.7,6.6-12.5,17.5,1.5,14.5,24.1,14.8,33.8,8.7,4-2.5,10.8-11.3,14-12,4.9-1.2,8.1,3.9,13.2,2.8,4.3,13.8-10.2,52.2,2,61.5,26.4,15.6,25.4-30.2,30.5-36.5,4.8,3.5,1.6,8.9,1.5,13.4-.2,9.5-1.4,30.5,2.8,38.2,2.6,4.8,8.6,5.2,13.5,4.1,8.9-2,10.5-21.6,12.2-28.8,2.8,8.9-6.8,30.1,7.3,31.8,17.5,2.1,11.8-33.5,17.7-42.8,3.6,8.6,6.6,33.1,21.3,26.2,4.9-2.3,3-13.8,1.8-18.3-5.7-22.3-16.9-41.3-21.3-64.7h0v.2Z"/>
  <polygon class="st0" points="666.3 241.9 717.3 146.9 724.3 61.9 628.5 0 499.3 17.2 420.8 90.6 443.8 167.7 486.8 220.2 553.3 289.9 666.3 241.9"/>
  <g>
    <path class="st1" d="M829.1,604.4c-1.5-9.5-3.6-13.3,4.7-19.7,6.5-8.9,4.4-19.8,7.7-28.5,6.7-17.8-.7-30.9,1.8-52.3,6.7-35.7,13.9-55.7,2.9-88.5-6.9-20.5-16.4-29.3-23.9-38.5-8.7-10.7-6.5-8.5-13.8-21.7-24.2-43.3-31.2-52.3-47.2-67.3s-95-46-95-46l51-95,7-85L628.5,0l-129.2,17.2-78.5,73.5,23,77.1,43,52.5s-9.8,6.7-10.6,6.9c-1,.2-3.6-1.1-5.3-1.3-13.2-1.3-17.4,1.2-28.6,2.4-16.1.6-24.1-2.2-38,8.6-10.6-3-12.1-.7-21.1,2.4-5.7.5-15.1-3.1-21-3.9-13.8-1.9-28.8-.1-41.8,3.7-6.4-9.6-22.1-9.4-28.6-13.4-3.6-2.4-8-10.1-13.4-13.6-9.8-6.1-25.5-11.9-36.6-15.4-9.6-15.5-26.1-21.4-41.6-29.5-1.1-2.2,1.5-14.9,1.6-18.5,1.5-18.3-7.7-41.1,1-56.9,5.4-23.4-23.5-23.8-31.2-2.2-3.1,7.9-2.4,16.6-4.9,24.5-24.2-2.2-41.1-87.1-62.4-84-18.9,2.4-1.9,29.6,2.7,37.9,1.1.7,3.4,0,4.8.2-4.7,4.8-2.2,3.8-.5,8,1.6,4,2.3,8.1,4,12h4.5l-4,2,1,4c-16.5-17.1-29-44.2-46-60.5-5.4-5.5-14.4-9.2-18.6-.5-6.2,12.8,14,31.8,20,42.1l2.1,1,4.5-2c-7,9.2,5,16.6,8,25-16.6-11.2-33.9-34.9-50.8-44.7-8.3-4.8-19.8-5.1-19.2,7.1.4,9,25,26.4,30.1,35l5.9.6c-.2,1.9-1.3,2.9-.5,4.9.9,2.6,15.6,17,14.5,18.1-16.8-7.8-39.3-23.9-57.5-26.1-8.6.5-11.7,8.3-7.3,15.4,4.4,7.1,25.1,16,33.1,20.9,7.3,4.4,14.2,9.7,21.7,13.8-3.3,3.9-23.1-3.4-29.5-3-9.6-1.2-26.1-3.5-22.3,11.2,8.9,11.8,29,11,41.6,15.4,2,.7,15.2,6.1,16.2,6.9,4.8,3.8,13.4,17.6,18.4,23.1,14.4,12.3,24.5,27.2,44.1,32.4,3.4,22.3,24.1,37.3,43,46,11.9,17.3,9.6,17.2,29.4,28.6,13.7,10.1,21.7,21,37.4,29.6,6.5,3.5,18.7,11.1,24.5,13.5,41.2,17.3,84.4,7.4,126.7,18.3,6.7.7,15.2,0,21.9,1.1,11.3,1.8,23,8.6,34.9,7.9,1,.2,5.3,11.6,6.5,13.7,1.7,3,6.5,7.7,7.4,10.6-.3,10.9.7,10.6,8.7,17.5,1.6,4.4-1.6,11.8-2,16.7-.9,12.7,3.7,19.4,7.1,30.9-9.9,2.6-10.3,10.6-11.2,19.4-3.1,1.7-6.6.8-9.9,1.6-2,.6-4.4,3.1-5.6,3.3-1.4.2-6.4-3.1-9.1-3.6-12.1-2-11.9-2.1-23-6-42.8-15-81.1-16-124.9-20.1-48.1-2.5-86.7,19.7-94.3,69.5-12.1,15.9-10.1,26.7-14.3,43.7-8.4,20-14.7,32.8-15.2,55.8-2.8,12.2-10.6,14.3-10,32.4,2.4,17.7,6.6,12.9-2.3,29.2-.7,3.6.7,8.8-1.3,11.7-1.6,2.4-14.3,6.3-17.8,8.2-24.1,22.2-50.3,4.8-71.7,38.3-28.6,23.4,5.3,60.8,33.2,63.9,42.6,7.3,55.5-13.5,91.8-19,14.1-2.2,31-.6,43.1-9.8,11.9-10,22.3-33.9,18.5-49.4.1-1.2,5-10.4,6.1-13,1.6-3.9.1-6.5,4.4-9.6,19.4-11.8,21-23.4,24.8-42.2,18.6-21.8,14.5-23.6,23.5-48.5,3-6.6,10-12.1,8.3-21.2,6.4-1.9,10.9,3.6,17.2-2,16.9,7.1,34.2,13.4,51.4,19.6,6.6,2.9,28.2,6.1,29.3,13.2-9.9,4.2-19.7,9.8-28.5,16-5.5,6.7-12.6,9.5-20,13-3.4,2.3-33.3,32.5-35.3,35.7-3.7,5.8-7.1,16.7-11.3,21.7-14.4,11.9-12.8,18.8-19.1,33.4-15,5.2-26.5,21.8-32,36.5-2.2,9.3-2.2,13.8-12.7,18.3-27.4,26.7-37.9,24.3-70.8,35.2-86.9,48.8-5.5,139,95,59,11.7-6.7,24.4-12,36-19,5.9-3.6,18.7-14.6,24.2-14.9,22.2-1.3,27.7-9.1,44-21.9,12.9-8.4,19.5-14,27.4-27.6,22.5-15.7,17.8-11.2,33-34,5.6-6.4,15.1-5.5,18.4-15.7.4-1.2-.4-2.6-.3-2.7,1-.8,10.6-2.2,13.7-3.9,8.8-8.4,9.6-7.8,20.8-12,107.9-40.5,153.5-92.6,156.7-103.5,7.6-11.3,11.2-32.5,18.4-43.6,3.1-5.3,10.4-10.4,14.2-17.8,4.5-8.9,2.5-12.5,4.3-20.7,2.1-10.8,15.6,2.8,30.4-28.6,4.6-9.9,5.1-18.3,8.2-28.7.7-2.5,2.3-15.2,4.8-15.2,13.4,21.6-12.7,37.1.3,65.3-16.8,14.2-24.6,33.7-40.3,48.7-6.2,5.9-13.7,6.6-12.5,17.5,1.5,14.5,24.1,14.8,33.8,8.7,4-2.5,10.8-11.3,14-12,4.9-1.2,8.1,3.9,13.2,2.8,4.3,13.8-10.2,52.2,2,61.5,26.4,15.6,25.4-30.2,30.5-36.5,4.8,3.5,1.6,8.9,1.5,13.4-.2,9.5-1.4,30.5,2.8,38.2,2.6,4.8,8.6,5.2,13.5,4.1,8.9-2,10.5-21.6,12.2-28.8,2.8,8.9-6.8,30.1,7.3,31.8,17.5,2.1,11.8-33.5,17.7-42.8,3.6,8.6,6.6,33.1,21.3,26.2,4.9-2.3,3-13.8,1.8-18.3-5.7-22.3-16.9-41.3-21.3-64.7h0v.2ZM61.1,158.9c.9-5.5.8-13.1,8.7-11.6l1.6,6.1c-2.9,7-3.1,16.2-10.2,5.6h0ZM77.1,140.9c0-7-5.1-6-9-9.8l6.8-9.8,9.7,9.8-7.6,9.9h0ZM654.8,199.2l23.5-56.3,12.5,3.3-36,53h0ZM458.8,168.7l36,25.5-33-55-9,21-16-41,22.8,6.7-26.8-23.4,46.4-51.7-15,67.3s39.4-81.1,41.6-84.4c1.7-1.3,112.5-18.5,112.5-18.5l48.3,43.5,40.1,4.4-35,4,25,31-29-23.5-14.9,59.9,47.4-20.5-51.2,31.4-68.2,133.2,55.1-135.1-56.6-44.4,36.5,46.5-67.5,3.2s17.3,132.2,15.5,132.3l-30-132.9-62-13,84,148-97-114.5h0ZM580.8,242.2l15.5-78.3h16l-31.5,78.3ZM477.6,236.5c1.6-2.8,12.2-14.5,15.2-10.3,1.6,2.2-3.5,5.5-4.4,7.1-5.5,8.7-6.2,19.2-1.8,28.6,31.1,55.3,111.7,28,159.7,1.3,0,0-23,22.7-50.8,36.2-2.9,1.4-16.3,5.9-16.3,5.9-43.6,12.8-125.1-10.4-101.6-68.8h0ZM602.8,314.6c-65.5,44.2-119.5-11.3-120-18.5,34.8,24.2,82.5,27.7,120,18.5ZM102.3,110.5l-6.5,9.7-4.4.2c-4.9-10,2.6-21.3,10.8-10h0ZM123.5,116.8c-7.8,8.3-19.6,26.2-25.8,36.5-2.9,4.9-3.5,11.6-9.9,14.6,7.8-19,17.8-38.2,29.5-54.5,1.2-2.9-.3-5.8.8-7.7,2.2-4.1,11-4.4,14.3-1.8.4.3,2.9,4.5,2.8,4.7-3.1,1.9-9.5,5.8-11.8,8.2h.1ZM181.4,142.2c-1.5,4.8-6.2,3.5-6.6,4l2.1,8.5-5.8,5,1.4,5.6c-2,2.2-4,1.3-6.6,1l1.9,4.6-1.4,2.3c-2.4-.6-4.7-2-6.4.6l3,6.5-10,2.1,1.5,8.9c-7.5-4.1-15.7-15.6-18.6-23.5-2-13.1-6.2-37,7.1-45.5l-3,18c7,1.2,4.1-14.7,12-16-4.3,8.3-8.7,22.8-1,30,1.5-8.9-1.6-22.2,9-26l.5,6c3.8,2.2,3.7-2.9,5-5.1,11.5-13.9,3.8-52.9,26.6-46.9-7.6,8.8-3.7,22.8-10.5,31.5-.9,7.4,4.6,17.6-1.3,22.2-.3,1.6,2.5,3.1,1.5,6.4h0l-.4-.2ZM182.8,212.2c2.7-9,10.1-16.2,12-25.6.4-2.1-2.1-4.6,1-5.4.2,1.9.5,8.7,1.3,9.8.3.4,1.2.3,1.7.2v1c-3.2,0-3.1,4.5-4.6,6.9-3,4-6.6,11.8-11.4,13.1h0ZM228.8,219.7l-2.1,3.4-2.9-.9-1,3c-1.1-3.6.4-20.6-5-20,1.3,18.8-35.9,48.9-26.4,34.1,15.2-14.7,27.4-37.1,18.3-58.1,20.1,10.6,22.2,17.5,16,39l3-.5h0ZM278.4,293.2c-11.1,19.8-21.6,25.4-4.4-.4,1.8-3,3.1-11.1,2.9-14-.7-10.5,3.7-23-1.9-33.1l-2.5.5c-1.8,8.5-8,15.1-13,22-4.5-.9.9-1.9.4-3.3-1.1-2.8-2.6-9.2-6.9-7.2-1.7.8-2.4,4-5,3.5,1.2-3.2,4.8-10.3,4-13.3-.2-.8-2-.6-2-1.2-.2-3.3,2.7-9.6,2-13.4l-6,8.5c-2.5,1.4-10.8,13.2-13,11.5,9.3-12.6,11.5-28.2,14.5-43,.5-1.8.3-2.3,2.5-1.9l-.5,2c7.7-.1,9.2,9.8,9.9,16,.6,5-2.6,12.2,3.5,14,.7-5.6,3.2-10.8,1.2-16.5l1.3-8.5c37.5,23.6,31.2,42.3,13,78h0v-.2ZM315.8,312.2c-3.8.7-1-3.4-1-5.5.2-10.6,1.6-22.5-.2-32.7-.2-.9-2.7-13.1-4.7-9.2-.8,9.3-3.9,17.2-7,25.8l-3,.7c3.2-10.5,3.7-24.9,3.9-35.5,0-.7-3.5-11.2-4.1-13.7-.6-2.4-4.7-4.2,1.8-3.8,5.4.3,12,4.5,12.5,10.1l3-1c0,4.1,4.2,6.2,5.3,10.2,4,17.1,0,38.7-6.3,54.8h0l-.2-.2ZM457.4,343.2s-.6,14.4-3,13.9c-8.6-16.6-8.1-45.5-6.4-63.4.6-3.6,7.2-22.2,5.9-23.6-5.6-2-9.3,16-10.7,19.8-.2,1.3.5,11.9-2.2,9.2-5-5.5-3.9-37.2-7.5-39-1.5-.7-2.3,2.1-2.8,3.1-4.6,8.8-4.1,16.6-3.7,26.4,0,1.8,2.4,6.9-.4,6.4-6.9-5.7-11.3-34.2-21.5-38l1.3,21.4c4,10.1,7,21,11.7,30.6l1.5,3,3.5,16c-1.8,2.3-23.6-30.3-26.1-39.9-.6-.5-2.5.2-3.6-.3-.9-.5-8.3-11-13.2-14.3-2.9-4-3.5,2.8-2.9,4.9,2.1,13.8,12.4,29.2,18.1,41.9.8,1.7,2.4,4.9,1.3,6.7-23.8-18.8-27-55.4-53.5-72-1.2,1.5,8.1,16.2,9.5,19,7.4,14.6,7.5,18.5,8.5,34-2.9,3-6.5-8.5-7.5-10-.5-.8-4.5-5.2-5.5-4,0,8.8-5,21.2-9.8,28.7-.6,1,.1,1.8-2.2,1.3-1.4-8.9,2.7-20.7,4-28.4-.2-7.5-3.7-25.7-6.1-33-1.1-5.4-10-13.7-7-17.1,6.2-5.6,43.1-1.3,52.3.8,2.9.7,11.8,4.7,11.8,4.7,1.1-1-8.7-10.7,7.5-10,4.9.2,13.1.4,14,6,3-1.6,1.7-7,3.5-8.5,2.4-2.1,21.4-4.2,23.8-2.2,3.2,2.7,5.2.5,8.5-1.5,1.5-1.6,27.1-4.6,22.8.7-6.1,11.7-7.7,26.8-3.3,38.8-7.4,13.5-10.6,30-9.7,45.6,3.7.5,2.5-6.2,3-8.3,2.1-7.5,5.6-16.6,6-24.7h3c10.3,47.9,100.7,75.1,140,50-4.3,7.5-7.5,16-7,25,10.1-11.1,16.9-30.9,31-37l-8,37.5,2,.5c15.8-33.9,32-71,67-90-3.6,6-10.6,10-15.4,15.1-21.6,24.7-32.7,58.3-30.6,90.9h-3l7,25.5,9,15.5c-1.8.4-2.4-.9-3.4-2.1-2.8-3.3-9.4-11.2-11.4-14.6-5.3-9.1-7.7-20.9-16.2-28.3-3.8,16.1,10.8,46.8,12,48.5,2.8,5.2,12.8,10,13,16.5-12.9-2.7-26.7-19.8-35-29.5-2-2.5-28.7-45.3-28.7-45.3l-62.3-12.7-9.4-.7-43.1-20.5-20,10.7h0l-.4.3ZM599.8,466.9c6.2,1.2,12.1,3.7,18.1,5.6l-2.8,5.6c-5.7-8.2-16.3-2.5-21.7-10.4,3-4.5,3.5-1.4,6.5-.9h0ZM496.8,457.7c1.9,1.7,8.5,5.4,9.1,6.2,1.1,1.6,4.6,15.4,3.9,16.3-17.9-10.4-39.6-26.5-37-50,7,.6,28.1,9.8,31,11l-2,11.5c-2.6,1.9-11.1-6.7-15-5,4,2.8,6.4,6.9,10,10h0ZM516.8,497.1c-2.7.8-5.2,2.7-8.2,2.1-1.4-2.5-11.7-8.9-13.7-9l9.9,15.6-2.4,2.4c-6.9-8.7-15.7-16.1-19-27.1-1.8-3.5-7.6-8.3-5.1-13,1-3,10.2,7.1,12.2,7.9,5.6,4.7,27.6,13.9,26.3,21.1h0ZM519.5,449.3c1.5-.4,10.5,6.7,11.7,7.9,10,9.6,2.5,32.9,2.5,32.9-2.1,1.6-13.6-4.7-15-6.8-3.4-8.5-9.3-27.8.7-34.1h0ZM496.3,517.2c1.9,2,2.1,9.2,1.5,11.5-1.5,6.2-33.4-29.9-25.5-43.5l24,32h0ZM476.8,524.2s26.8,26.1,27.5,27.7c0,0-29.2,32.9-31.5,32.3l4-60ZM509.3,558.9c11.1-4.4,46.8,24.1,51.5,26.3,0,0-65.9,2.1-76,6,0,0,18.2-26.9,24.5-32.3h0ZM502,534.5c3-13.7,11-43.3,30.5-29.9.9.6,2.9,3.3,4.2,4.1-2.2,2.6-17.3,37.5-17.3,37.5l-17.4-11.7h0ZM511.8,424.7l2.1-55,11.1-10.4,55.8,10.4-10.7,11.8-2.3,58.7-56-15.5h0ZM554.1,484.4c5,3,13,8.5,17.4,12.1,2.8,6.5,8.8,2.9,7.3,11.7-2.7.5-5.3-1.9-7.6-2-17.7,7.5-20.8-12.7-24.4-25,1.1-.9,6.1,2.4,7.3,3.2h0ZM544.9,516.2c13,.7,23.2,11.4,34.6,17.3.5,2.8,13.8,5.8,13.4,7.6-17.1-2.7-35.8-5.1-49.9-16.1l2-8.8h0ZM573.2,486.8c-4.5-4.3-7-12.7-10.8-17.7.7-7.1,25.4,5.7,27,8l-6.5,13.6c-2.4,1.5-7.9-2.1-9.7-3.9h0ZM467.1,405.9l-1.5-6.9-3.8-7.3c-.8-5,.5-43.6.5-43.6l15.7-9.7,34.8,17.8-14.6,15-1.4,49-29.7-14.3h0ZM81.8,790.2l-3-3c-10.2,6.2-21.9-17.7-19-26l6.6,13.9c2.3,2.4,4.4,5,6.9,7.1,3.1,2.6,9,3.7,8.5,8ZM93.1,794.5c-4.3-.4-11.9-.8-10.2-6.3,4.3,1.8,8.1,5.2,13,5-.6,2.2-1.3,1.5-2.8,1.3h0ZM137.8,770.2l-26.5-25c.2,8.1,9.2,14.2,9.5,23-4.9-.2-8.2,5.4-14,3v3l-7-1c.7,7.2-6.8.5-9,2,2.8,7.8-5.3.2-5.8,0-12.3-1.5-22.8-11.9-15.7-25,8.2-12.7,28.3-20.5,42.3-18l.2,2.7c11.3,2.4,22.2,12.2,25.9,23.2-8.4,2.3-.5,6.9,0,12h.1ZM160.8,748.2c-5.4-2.5-4.6.5-5.7,1-1.8.8-3.9.7-5.3,1.5-1.4.9,0,3.2-3.1,2-4-1.5-10.8-12.1-15.4-15.6-2.1-2.2-15.8-6.5-11.5-10.5.7-.5,10.8-4.2,11.6-4.3,1.4,0,9.6,3.3,10.1,4,.4.7,2,2,2,2,1.4,2,19.1,17.9,17.2,19.7h0v.2ZM166.4,741.2c-1.6-.4-8.1-9-9.9-10.6-5.8-5.3-13-9.7-19.6-13.8l14.4-6.3c2.1.4,11,14.8,13,17.5,1,1.4,5.1,4,5.5,6,.1.6-1.4,7.8-3.3,7.3h0ZM158.9,702.7c-.1-1.5,2.5-11.2,3.4-12.5,1.9-2.7,6,3.7,6.9,4.6,5.6,6,10.8,10.7,16.6,15.9-2.7,2.8-10.3-4.3-11-3.5.3,12.5,16.9,19.4,26,25-13.8,1.6-41.8-27.7-41.9-29.4h0ZM266.8,502.7c-1.1-.4-1.9.7-3,.5-.9,1.1,8,15.9,9,18.5,2.5,6.4,2.6,13.2,5,19.5-5-6.2-24.4-15.8-29-15,2.2,10,17.9,29.4,17,34-1.4,1.9-28.9-13.1-31.9-15.6-7.4-6-11.5-15.2-17.6-22.4-5.1,7.7,11.4,27.4,15.9,33.6,3,3.1,16.8,11.4,15.6,15.8-1.6,6.2-16.3-5.8-18-6.9-17.6-10.1-22.6-16.6-22.5-15.8,4.4,28.2,36.2,42.8,62.1,45.8l8.5,2.5c-5.8.3-12.6-1.3-17.6,2-1.6.3-24.9-6.2-28.4-5.5-27.6,5.2-5,38.5-5,38.5,0,0-30.5-8.3-26.7,16.2,1,6.2,10.5,21.6,12.7,24.3-4.5,4.6-21.1-8.5-25.5-11.5-.3,11.1,26.8,25.7,37,26,2.1,0,8-.5,4.5,1-20.5,8.7-38.4-10.1-46-15-3.6,2.8,8,15.8,10,18.5-15.8-.6-30.6-17.3-30.1-34,0-3.3,2.7-16.5,6.6-16.5l7.9,11.2c.4,4.3,2.1,1.6,5.6,2.8-11.7-20.1-9.9-45.7-.2-66.7,2.7-6,3.4-2.9,5.5-4.4,4.2-2.9,1.2-13.6,1.8-19.3.6-5.9,3.2-12.4,4.9-18.1,0,0,4.9-6.7,4.9-10.6l3,1c2.2-36.4,27.1-71.7,67-67l16.5,49c-4.4-5-14.4-13.2-19.5-16.5h0ZM312.5,510.5l-3.7-1.3c-2.5,10.6-.6,21.3-1,32h-3c-1.4-22.6-6.2-46.6-21.5-64-2.1-2.5-12.7-8.6-2-10.1,6.5-.9,15,.3,19.6,5.5,8.5,12.2,14.7,29.7,17,44.5l-5.3-6.7h-.1ZM335.3,513.3c-5.1,8.6.7,20.9-1.5,30.9-1.6-.2-2.1-3.7-2.5-5-4.1-13.9-6.6-29.3-12-43-3.3-9.8-12.4-17.4-14.5-27,21.1-3.2,31.5,27.7,30.5,44.1h0ZM390.8,509.7c5.3,8.4,18.3,53.8,19,57.5-10.1-7.4-18.9-35-33.5-32.4-2.6-.4-15.2-25.3-21-27.6-1.1,9.4,6.1,17.4-3.3,24.7-3.1,5.8-2.3,15.7-7.2,20.3.5-27.7,1.2-58-19-79.5,29.1-2,62.6,11.9,91.7,18.3,6.3,4.9,6.5,13.4,9.3,20.2,5.3-1.8-.8-16.2,0-17,18.6-3.1,18.4,19.7,23.3,2.3,2.8-2.9,11-3.6,13.6.4.9,11,1.1,21.8,1.1,32.9,1,4.4,2.5,15.1-3,16.5-3.5-6.8-2.5-14.1-4.3-21.2-1.3-5.3-3.8-9-5.8-13.8-9.3,1.5.4,37.4.1,45.5.3,5.4-1.5,12,0,17.5-9-4.9-7.5-58.8-20.7-50.5,1.6,3.8-.5,7.5-.7,11.4-.6,1.9,2.4,14.4-1.1,13.1-2.6-4.3-6-15.8-13-14.1-1.1.3-.4,4-2.5,4.1-4-5.2-16.4-30.8-23-28.5h0ZM155.3,871.9c2.1.4,2.9,7.8,2.9,9.1.5,6.4,0,12.9,3.4,18.9,1.3,2.4,4.1,3.5,4.2,6.3-16.5-1.3-16.1-25.6-10.5-34.3h0ZM212.8,885.2l-10.2-17.3c-1.9-.8-3.6-7.4-5.3-6.7-4.6,3,8.3,22.8,2.2,27.7-2,1.9-4.9.2-5.8.8-1.3.8-.9,3.2-5.6,3.5l-3.4-2-1.5,4-6-4-.5,4c-2.1,2.2-10.6-8.3-8-.5l-2,.5c-11.9-25.9,9.8-50.9,35.8-50.9-.4,2.9,2.8,5.9,3,6.7,1.3,3.9,1.6,9,2.8,13,1.1,3.6,5.9,13.5,6.1,15.9.1,1.8-1.8,3.4-1.8,5.3h.2ZM256.3,827.2l-2.5,8.4,8,22.6c-6,1-7.2-8.7-9.3-10.7-6-1-3.7-6.2-8.7-5.3-1.5,1.6,3.1,20.9,8,21l-.5,2c-15.8-5.7-12.1-10.8-20.5-19-1.1,4,2.7,9.6,2.8,12.7-3.8,7.2-3.9,7.8-3.7,16.9,0,1.8,3,2.9,1.4,4.4-3.1-.7-8.4-3.4-6.6-6.9-6.4-.3-18.1-22.8-16.6-28.5.8-2.6,13.5-3.5,17.1-4.8,13.9-6.4,27.1-15,36.2-27.8,2.6,4.7,1.9,9.9,3.5,15.5,2.2,8,6.3,15.6,9,23.5-7.9-6.3-11.8-15.8-17.5-24h-.1ZM336.8,801.7v-4.5c-6.4,5.3-16.1-5.8-21.5-9-1.9-.7-2.2,3.9-2.2,4.7,0,1.7,2.4,4.7,1.7,5.3-.5.5,4.2,3.4,3.5,8-7.7-4-13.8-11.1-14.5-20h-3c.5,3.7-.7,8.9,0,12.3.2.8,7.1,10.9,7,14.2l11,15.5c-11.6-3.9-22.7-9.3-30.5-19-1.7,22.7,11.4,31.2,13.1,31.9,1.2.5,6.5,4.2,5,6.1-10-5.5-29.2-24.7-29.5-25-8.2-20.3-5.2-53.7,20-60,.3,4.6-.5,9.5,1.9,13.6.5.9-.5,2,2.1,1.4.6-16.7,5.4-34.5,15.5-48,2.9-.6,3.2,5.9,2.2,7.8-.2.3-1.7.3-1.7.8,2,13.1,7.3,27.1,16,37.9l-3-1-12-15.5c-.5,12.6,5.9,23.5,15,32.5,6.1,5.5,9.5,6.4,16.3,10.7,2,1.2,6.5,3.4,6.6,5.8l-19-6.5h0ZM414.4,705.2c-3.4-3.2-13.9-10.2-15.5-13.5-1.4-2.8-18.9-14.9-28-13.5,0,0,46.5,35.7,49,65-2.1-2.3-6.2-5.4-8-7.5-3-3.5-5.9-11.3-11-12-1.4-.2-2.9,2.3-5,.5,1.1,13.6-2.8,6-7.5,4-3.1-1.3.2,4.1-.5,5l-7.5-3-1.1,2.1,1.1,3-4.6,2.5,7,9.5c-1.9,1.6-22-7-22-7-1,1,7.6,21.5,13,21,1.3,6-27.5-21-27.5-21l-8.5-10c0,9.7,3.6,20.4,10.3,27.2,1,2.4.7,6.9,2.2,8.7.8.9,16.8,12.3,19.1,13.8,2.8,1.8,5.2,6.4,8.8,6.2-32,1.7-35.1-14.9-39.1-17.8-5.2-3.8-6.9-1.9-9.8-10.2-2-6.1-10.1-33.9.5-34-.9-1.9-2-2.9-1.8-5.2.1-1.7,5.2-12.8,6.4-14.7,10.4-16,11-13.3,24.9-22.1,3.8-3.9-1.4-3.1-1.4-4.4-.1-4,15.6-11.9,19.6-12.4,20-2.2,48.3,28,52.2,45.7-1.7,6.8,1,8.5,3.2,14.2l-18.5-20h0ZM446.8,716.2c-14.8-22.6-35.6-45.5-61-56-.5-3.5,3.9-2.8,5.4-3.9,1.4-1-.7-3.1,2.1-3.2,8.3-.2,20.1,4,27.1,8.5,9.9,7.4,27,24.7,28.4,37.6l-4.6-3.8-4.4.8,7,20h0ZM576.8,628.7c-2.5.5-5.7-3.5-8.7-5.3-7.9-4.7-8.2-2.1-14.6-3.4-10.2-7.9-25-9.5-37.7-8.8,16.9,7.2,35,20.1,41.9,37.6.5,1.8-1.2,1.9-1.9,1.4-2.1-6-7.7-5.7-12.3-7.2-3.2-1-8.8-6.8-8.3,1.3l-11.5-4c1.6,2.8.8,6.6,1.5,9,1,3.5,3.4,6.6,4.5,10-.8.8-8.3-5.9-9.7-6.8-7.5-4.4-40-25.2-46.3-17.2,1.3,0,2.6.2,3.7.8,8.1,4,17.9,7.1,21.1,15.7-1.2,2.4-2.5,2.2-4.8,1.5l1,7-11-6,1,6c-.5.5-3.7-1.1-3,1.5l5,7.5-7-3c3.8,8,.7,4.8-3.5,5.4-2,.3-4.3,5.4-9.5.6l-.5,3.1-8.5-1.1c1.5,15.7,12.1,30.2,10,47-3.5-2.1-3.2-7.3-4.5-11-9.9-29.5-33.1-57-65.5-61-.6-4.7,26.9-16.8,32-18l-1-2.9c26.7-12.6,26.9-21.5,58-13.1,3.2-3.8-8.9-7.6-11-7.5-1.6,0-1.8,1.2-3,1.5-2.2-2.8,14.4-9,16.8-9.7,33.3-7.5,78.3-6,103.2,19.7-11.1-4.5-23-8-35-9l19,18.5h0ZM592.7,564c-7.9-1.1-15-5.5-22.6-7.5-5-1.3-10.2-.3-14.2-3.3-.5,2.2,1.1,2.3,2.5,3,11.2,6.5,25.7,11.3,34.5,20.5-1.9.9-4.4-2-7-3-8.7-3.2-18.9-5.2-27.5-8.5-2.7-1-21.6-11.1-22.2-12.2-3-5.3,2.5-14.5,4.3-15.8l72.5,27-20.2-.2h0ZM621.8,502.2c-6.9-3.7-14.3-8.4-21.4-1.9-2.9,2.6-2.5,6.4-7.6,5.9l-3,6c-6.9-3.2-3.4-12.3-.5-18,4.5-9.1,17.6-8,17.6-8,.4-.3,7.4,4.7,10,3-2.2,5,.2,3.2,2.3,6.2,1.4,2,3,4.1,2.7,6.8h0ZM615.7,441.8c-3.4-4.4-8.6-6.9-7.8-13.6,11.9,1.8,36.6,36.1,51,39-1.9,7.6-24-6.9-25.4-7.1-3-.4-9-6.5-11.1-8.9-2.3-2.6-4.4-6.5-6.6-9.4h-.1ZM641.9,523.7l-3.9-.7-4.7.8c-5.4-1.3-6.8.8-11-4l6-10,15.5,8.8-2,5h.1ZM654.6,526c-.6-.2-5.5-3.1-4.7-4.8,3.8,1.5,7.8,3.3,12,3,3.6,2.5-6.3,1.9-7.3,1.8h0ZM731,451.5l1.8-30.3c-5.5,4.4-8.4,12.2-9,19-11.6-4,3-37.4,3-47-3.3-3.1-13.5,11-14.7,13.8-4,8.9-4.7,19.6-3.8,29.2-13.1-16.2-14.3-34.6-10.2-54.2,1.2-6.5,5.2-13,3.2-19.8-13.4-5-17.7,39.4-14.5,48-7.7-14-11-30.6-10-46.5,0-4,2.2-7.9.5-12.5-1-2.7-1.3-.3-1.8.2-7.2,7.8-6.5,27.3-5.8,37.3.2,2.5-1.8,4.5,1,7.5-6.3-1-5.8-9.2-7.3-14.2-13-38.6,14.4-93.7,55.9-100.8,3.9-.3,19.4,9,19.4,9-22.4-3.8-49.6,31.7-53,52,2.5.6,1.8-.7,2.6-1.9,4.1-5.8,7.2-13.2,11.4-18.6,13.5-17.3,29.3-23.9,51-18.1,1,.3,11.7,4.9,10,6.5-10-2.3-21.9-1.7-31,3.5-1,2,18.7,10,16.5,14.5-1.8.2-11.6-.9-11.5,1.5,4.9,5.5,15.7,3.6,15,7-10,6-22.1,13.6-23,26.5,13.8-4.7,47.2-28.5,57-4-2.1.6-4.3-1.4-5.9-1.5-11.8.5-30.3,9.1-31.1,22.5,11.2-4.2,20.1-8.8,32.5-8,1.6.1,21.3,3.6,17.5,7-6.4,1-13.6-3.4-18,3,6-1.1,10.6,2.3,15.8,3.7,9.6,2.7,24.4,3.4,28.2,13.8-10.9-5.1-75.5-5.8-83.1,41-3.8,23.6,8.3-37.3,61.5-28.4,1.3.1,11.5.4,11.5,5-31.8-6.1-65.6,20.2-76.5,49-4.5-.4-2.8-11.6-5.3-14.7h.2ZM786.8,514.2c2.9-1,3.1,1.8,4,2.3,4,2.2,12,2.7,13,8.7l-3,.5c4.7,5.2,11.1,8.8,14,15.5l-13.1-9.4c-6.6-3.2-29.9-15.8-33.9-6.1,1.1,2.7,19.5,5,18,11.5-.9.9-17-2-20.2-1.8-7.9.6-14.2,6.8-21.8,7.8.2-7.8,14.1-9.2,15.8-13.7,3.1-6.9-10.8-.8-13.3-.3-2.4.9-4.1,3.2-6.5,3.5-.8-13.3,17.2-37.3,31.4-33.8,8-6.9,28.4.2,35.3,6.6,2.2,2.4,2.7,5.9,4.3,8.6-3.8-1.5-7.7-3.9-11.9-4.4-2.5-.3-5.8,1.4-8.7-.2-1,2.1-3.9,2.4-3.4,4.7h0ZM782.8,691.2c-1.9-.5-2.3-5.2-2.4-6.8-1-19.7,1.5-39.3-.6-59.6-.8-7.5,9-20.9,3-22.4,17.5,3.5-.4,82.4,0,88.8ZM782.2,602.2h.3-.3ZM764.7,562.4c-10.8,1.3,6.4,5.7,7.3,6,5.5,2.3,10.2,6.1,16.1,7.6l1.7,3c-6.5-.9-14-5.2-20-.5,0,1.1,16.2,9.5,15,14.5-4-1.6-6.2,2.8-8.5,3-2,.2-7.9-2-10.3-2.7-2-.6-5.2-4-6.1-.7-.7,2.2,4.5,12.5,4.8,16,.5,2.4-3.6,2.8-3.9,4-.8,3.5,2.9,11.3,2.1,15.8-.7,3.7-6.8,6.3-7,7.2.3,13-1.5,27.4-9.5,38.3-8.5-10-.4-22.2.5-34.5.6-13.4,1.1-35.8-7-36.5-.8-3.8,2.8-16.3-1-18.6l-4.8.8c-.4,3.1-2.3,12.6-6.5,11.6-1.5-.3-3.4-4.3-6.6-2.7-1.9,4.5.6,8-4.8,10.2-3.1,4.9-1,9.7-9.7,6.8-2,1.6-2.4,3.8-4.7,5.3-.8.6-10.8,4.5-11.4,4.5-1.9,0-5.5-2.7-7.5-3.4,11.4-9.3,8.7-.6,18.2-16.3,1.2-.7,3.4,0,3.8-.2.3-.2-1.3-2.4,1-6.2,3.1-5,21.4-28.2,25.5-30.8,1.4-.9,5.4-.9,6.3-2.2.6-.9,0-2.8,1.2-4.3,1.7-2.4,12.4-8.4,15.5-9.5,12-4.1,21.1.8,32.5,4-1.1,2.8-5.6-.7-7.5-1-6.7-.9-14.8,1-21.4,2,2.5,3.5,8.6,1.5,12.4,2.1,9.8,1.8,27.9,7.2,31.6,16.9-9.9-4.3-26.3-11-37.1-9.7h0l-.2.2ZM814.2,658.2l-11.9-42.3,11.1,11.8c1.2,6.2,14.9,27.4.8,30.5h0ZM825.6,504.9c.5.9,2.2,2.5.7,3.3-3.9-1.2-6-6.1-8.6-8.4-10.9-9.8-35.3-13.5-49.2-10.3-8.4,2-13.3,9.8-21.7,10.7-3.5-12.7,10-23.2,18-31-6.2-2.6-19,15.6-23,13-2.2-37,41.4-66.8,76-55l-1,2c9-3.1,16.8,8.3,22,14-15.1-8.6-10-7-27-7l12.8,10.1c1.7,9.4-17.6-2.4-27.1,1.1-9.1,1.7-22.5,6.8-28.8,13.7,20.6-8.1,50-4.4,60,18-2.6,0-3.5-2.6-6-3.5-7-2.5-34.6-7.5-37,1.5,18.5.9,31.3,12.3,39.8,27.7h0Z"/>
    <polygon class="st1" points="640 132.9 657.8 69.2 590.2 90.7 640 132.9"/>
    <polygon class="st1" points="605.8 23.6 522.8 37.2 576.1 79.1 605.8 23.6"/>
    <polygon class="st1" points="654.8 61.8 617.3 27.5 584.8 82.2 654.8 61.8"/>
    <polygon class="st1" points="573.3 89.7 515.8 108.2 534.8 142.8 573.3 89.7"/>
    <polygon class="st1" points="513.8 107.7 490.2 102 468.8 129.2 488.3 125.9 513.8 107.7"/>
    <path class="st1" d="M562.8,392.2c3.2-2.7-13.5-8.1-16.8-4.8-.4.4-1.2,4.4-1.7,5.8-3,7.8-.9,4.2-.5,11.5.4,16-4,23.1,15.5,25.2,5-7.2-2.9-5.1-6.8-6-9.2-2-3.6-5.4-2.8-10.4.6-3.9-1.9-11.4,2.7-14.2.9-.5,12.9-2.8,10.3-5.2l-12.3,1c-6.3-9.3,10.3-1.4,12.3-3h0Z"/>
    <path class="st1" d="M563.2,375.2c-6,2-13.5.2-18.9-1.5-2.9-.4-20.7-2.2-21.4-1.5-.2,1.7-1.7,7.6,1.9,5.2.2-.1,0-1,.2-1.1l37.4,4.7c3.2,0,3.3-5.2.8-5.9h0Z"/>
    <path class="st1" d="M522.8,385.2c-2.6-.3-1.6,0-2,1.5-1.1,4.6-3,25.1.5,28.5,2.4.5,1.4-1.9,1.5-3.5,1.5-9.6,1.7-17.3,0-26.5h0Z"/>
  </g>
</svg>